<svg width="16" height="17" viewBox="0 0 16 17" fill="none" xmlns="http://www.w3.org/2000/svg">
<g id="Material Icons" clip-path="url(#clip0_1627_2605)">
<path id="Vector" d="M16.0002 6.33656H14.9002V1.63656H10.2002V0.53656H15.5002C15.8002 0.53656 16.0002 0.73656 16.0002 1.03656V6.33656Z" fill="#F5F2EF"/>
<path id="Vector_2" d="M14.6 16.5366H0.5C0.2 16.5366 0 16.3366 0 16.0366V1.93658C0 1.63658 0.2 1.43658 0.5 1.43658H7.5V2.53658H1.1V15.4366H14V8.93658H15.1V15.9366C15.1 16.2366 14.9 16.4366 14.6 16.4366V16.5366Z" fill="#F5F2EF"/>
<path id="Vector_3" d="M15.0369 0.732056L7.6123 8.15668L8.39012 8.93449L15.8147 1.50987L15.0369 0.732056Z" fill="#F5F2EF"/>
</g>
<defs>
<clipPath id="clip0_1627_2605">
<rect width="16" height="16" fill="white" transform="translate(0 0.53656)"/>
</clipPath>
</defs>
</svg>
