<svg width="140" height="146" viewBox="0 0 140 146" fill="none" xmlns="http://www.w3.org/2000/svg">
<path fill-rule="evenodd" clip-rule="evenodd" d="M47.1238 71.8196C47.1238 71.8196 47.1238 69.6786 47.2395 68.9879C47.3552 68.2973 48.188 65.5577 49.044 64.2455C49.8769 62.9563 50.062 62.3578 50.1082 62.1506C50.1545 61.9434 50.4784 61.0916 50.6404 60.9995C50.8023 60.9074 51.1262 60.0096 51.3807 59.3189C51.6352 58.6283 53.324 56.5563 54.2263 55.5434C55.1517 54.5304 55.4525 53.7247 57.6041 51.6527C59.7556 49.5808 61.2594 48.5909 62.3699 47.8772C63.4804 47.1636 64.7297 46.1736 66.3954 45.1377C68.0612 44.1017 68.709 43.6413 71.6703 42.7204C74.6316 41.7995 75.6727 41.4312 75.9966 41.3621C76.3205 41.2931 77.6623 41.0859 77.8936 41.0398C78.125 41.0168 79.5825 40.9938 79.9064 41.0398C80.2303 41.0859 81.5027 41.247 81.5027 41.247C81.5027 41.247 82.567 40.9938 83.0991 41.0398C83.608 41.0859 87.7493 42.4211 88.8135 42.7204C89.8777 43.0197 94.1808 44.6772 95.4764 45.1377C96.772 45.5981 98.322 46.0355 98.9698 46.1967C99.6176 46.3578 101.052 47.2326 101.607 47.9923C103.342 48.0844 103.366 48.1305 104.245 48.5218C105.124 48.9132 105.656 49.2355 106.581 50.1103C107.599 50.1103 108.062 49.8571 108.27 49.9031C108.478 49.9492 109.126 50.2945 109.427 50.4326C109.751 50.5707 110.329 50.9851 110.699 51.0542C111.07 51.1233 112.944 51.6758 113.869 51.9981C114.794 52.3204 115.465 52.5276 115.766 52.5276C116.067 52.5276 116.622 52.3664 117.455 52.5276C118.288 52.6887 120.254 52.988 120.74 53.0571C121.203 53.1261 122.336 53.5635 123.91 53.5866C125.483 53.5866 128.514 52.8268 129.092 52.8499C129.67 52.8729 130.619 53.0571 131.521 53.0571C132.423 53.0571 133.927 52.6657 134.482 52.2053C135.57 52.1822 135.94 52.3434 136.703 51.883C137.467 51.4225 139.364 49.8341 139.78 48.3146C140.197 46.7952 139.942 45.5981 139.665 44.9535C139.387 44.2859 138.554 42.7204 138.392 42.329C138.23 41.9147 138.253 40.8787 138.068 40.5334C137.883 40.188 137.675 39.7967 137.652 39.3823C137.652 38.9449 138.068 37.9319 138.184 37.4945C138.3 37.0571 138.554 35.5377 138.068 33.9262C137.583 32.2917 137.351 31.624 137.328 31.3938C137.305 31.1636 137.513 30.519 136.912 29.1838C136.31 27.8485 135.2 26.1449 134.899 25.9147C134.598 25.6845 133.534 25.3392 133.303 25.0629C133.071 24.7866 132.562 23.5895 132.562 23.5895L132.678 23.2672C132.678 23.2672 131.336 22.3003 130.781 21.909C130.226 21.5176 129.717 21.0572 129.717 21.0572C129.717 21.0572 129.971 20.4126 129.184 19.3766C127.843 17.6039 126.963 17.7881 126.755 17.5809C126.547 17.3737 126.154 17.2816 125.899 16.637C125.668 15.9924 125.529 15.3709 125.367 15.0485C125.205 14.7262 124.742 14.427 124.742 14.427C124.742 14.427 123.192 14.5881 122.938 14.427C122.683 14.2658 121.388 13.2298 121.041 12.9536C120.694 12.6773 120.208 12.332 120.092 12.0097C119.977 11.6874 120 11.7565 119.352 11.4802C118.704 11.204 118.519 10.5824 118.403 10.4212C118.288 10.2601 117.339 9.79964 116.923 9.68453C116.506 9.56943 115.743 9.27015 115.442 9.06296C115.141 8.85576 114.563 8.5795 113.961 8.32626C113.36 8.07303 112.365 7.79677 112.365 7.79677C112.365 7.79677 112.111 7.31332 111.833 7.06008C111.555 6.80685 111.185 6.53059 110.977 6.53059C110.792 6.53059 110.445 6.53059 110.445 6.53059L110.329 6.0011C110.329 6.0011 109.843 5.81692 109.797 5.67879C109.751 5.54066 109.658 5.40253 109.473 5.2644C109.288 5.12628 107.322 4.02124 106.72 3.79103C106.119 3.56081 103.504 2.61693 102.81 2.20254C102.116 1.81118 101.654 1.55794 101.538 1.58097C101.422 1.58097 101.399 1.76514 100.913 1.69607C100.404 1.62701 100.034 1.41981 99.849 1.28168C99.6639 1.14355 99.1086 0.959384 99.1086 0.959384L98.993 1.28168C98.993 1.28168 98.7847 1.23564 98.4609 1.07449C98.137 0.890318 97.3272 0.867296 97.1884 0.867296C97.0496 0.867296 96.8414 0.475934 96.3324 0.452913C95.8234 0.452913 94.9443 0.314781 94.7361 0.337802C94.551 0.383845 93.9264 0.475934 93.7875 0.452913C93.6487 0.40687 92.9547 0.452913 92.6308 0.452913C92.3069 0.452913 91.5666 0.660102 91.5666 0.660102C91.5666 0.660102 90.8725 0.406867 90.5023 0.337802C90.1553 0.268738 89.762 -0.0765833 88.8135 0.0155027C88.2351 0.0615458 86.4074 0.637085 86.0604 0.637085C85.7133 0.637085 85.2969 0.31478 84.9962 0.31478C84.6954 0.31478 84.0707 0.844274 83.6312 0.844274C83.1916 0.844274 80.5542 1.05147 79.0967 1.05147C77.6392 1.05147 74.8398 1.16658 73.9144 1.16658C72.989 1.16658 71.5546 2.20254 71.0688 2.22557C70.5829 2.24859 69.3105 2.08744 67.5753 2.63995C65.8633 3.19247 61.4445 4.38959 60.2877 4.73491C59.131 5.08023 57.4884 5.93203 56.7943 6.09318C56.1003 6.27735 55.0361 6.27735 53.9487 6.82987C52.8382 7.38238 50.8023 7.9349 50.3627 7.98094C49.9232 8.05001 47.5865 9.29317 47.1932 9.33921C46.7999 9.38526 45.273 9.79964 44.0237 10.4903C42.7744 11.1809 41.8027 11.5263 41.4788 11.7565C41.1549 11.9867 40.4377 12.6313 39.8825 12.9075C39.3272 13.1838 37.2451 14.1277 36.5047 14.7032C35.7644 15.2788 35.2554 15.8083 34.9084 15.9694C34.5614 16.1075 34.1449 16.3608 33.9599 16.4989C33.7748 16.637 33.9367 17.0284 33.7516 17.0284C33.5666 17.0284 32.271 17.6039 31.8546 17.9723C31.415 18.3406 31.3919 18.8241 30.9986 19.1234C30.6284 19.4457 30.1426 19.6298 29.8418 19.6529C29.541 19.6529 28.9858 20.1363 28.7776 20.3895C28.5694 20.6428 26.5335 22.3924 25.8163 23.014C25.1222 23.6356 22.8318 25.5694 20.634 27.9636C18.4361 30.3579 15.5442 34.1564 14.6188 35.4226C13.6934 36.6888 13.0919 37.5636 12.6061 38.2542C12.1202 38.9449 10.9172 40.4643 10.5007 41.4082C10.0843 42.3521 9.27458 43.5952 8.6962 44.5621C8.11782 45.529 7.14614 47.8082 6.89165 48.1305C6.63717 48.4528 5.91997 49.9952 5.411 51.0772C4.90203 52.1592 3.62959 55.129 2.9818 57.5002C2.33402 59.8484 1.36234 62.588 1.17725 63.8081C0.992173 65.0283 0.645144 67.3764 0.552604 68.1131C0.436927 68.8728 0.0204935 72.0268 0.0204935 73.0628C0.0204935 74.0757 -0.0720474 77.7131 0.13617 79.0483C0.321251 80.4066 0.66828 83.2613 0.66828 83.2613C0.66828 83.2613 0.413792 83.6296 0.552604 83.998C0.691415 84.3663 1.24666 87.4512 1.29293 87.8886C1.3392 88.326 1.91758 90.8354 2.24147 91.9864C2.56537 93.1375 3.53705 95.9001 3.72213 96.1994C3.90721 96.4986 3.8378 96.9591 3.93035 97.1433C4.02289 97.3274 4.76321 98.2483 4.78635 98.5015C4.78635 98.7548 4.99457 99.7677 4.99457 99.7677C4.99457 99.7677 5.94311 101.517 6.15133 102.093C6.35954 102.645 7.35436 103.912 7.30809 104.303C7.26182 104.694 7.19241 105.247 7.42376 105.362C7.63198 105.454 7.9096 105.73 8.04842 105.891C8.18723 106.053 9.20518 107.963 9.41339 108.217C9.64475 108.47 10.0843 109.253 10.1537 109.483C10.2231 109.713 10.2 109.943 10.2694 110.104C10.3388 110.289 10.7321 110.45 11.0097 110.634C11.2873 110.795 11.5418 111.163 11.6344 111.486C11.7501 111.808 11.7732 112.199 12.259 112.752C12.7449 113.304 13.3232 113.88 13.5315 114.018C13.7397 114.156 13.971 114.294 14.0636 114.64C14.133 114.985 14.3181 115.653 14.5957 115.791C14.8733 115.952 15.4517 116.366 15.6599 116.642C15.845 116.919 17.3719 118.668 17.6727 119.06C17.9503 119.451 19.0145 120.418 19.269 120.533C19.5004 120.648 19.9862 121.408 20.125 121.477C20.2638 121.546 21.4668 122.145 21.6057 122.329C21.7445 122.49 21.9064 123.319 22.1378 123.48C22.3691 123.641 22.855 123.848 23.202 124.101C23.549 124.355 24.7752 125.69 25.0991 125.782C25.423 125.874 25.9319 126.173 26.0476 126.312C26.1633 126.45 27.2506 127.14 27.4126 127.255C27.5977 127.371 29.4716 129.051 29.9575 129.35C30.4433 129.65 30.6978 129.765 30.6978 129.765V130.087C30.6978 130.087 32.0859 130.524 32.5949 130.939C33.127 131.33 33.8442 132.159 34.0755 132.297C34.3069 132.458 35.6256 132.988 35.8801 133.034C36.1346 133.08 36.2965 133.034 36.4122 132.711C36.5279 132.389 36.9443 132.412 37.1525 132.504C37.3607 132.596 37.3839 132.919 37.3607 133.126C37.3607 133.333 37.3607 134.001 37.569 134.185C37.8003 134.346 38.5638 135.29 39.7899 135.865C41.0161 136.441 44.9028 138.398 46.3372 138.927C47.7716 139.457 48.2343 139.549 48.2343 139.549C48.2343 139.549 48.1649 139.963 48.35 140.078C48.5351 140.193 48.7664 140.217 49.0903 140.078C49.4142 139.94 49.9463 140.263 50.2471 140.401C50.5478 140.516 51.3807 140.723 51.7277 140.723C52.0747 140.723 52.3061 140.677 52.468 140.723C52.63 140.769 52.977 141.229 53.5323 141.252C54.0644 141.252 54.8278 141.299 55.1286 141.46C55.4293 141.621 55.8689 141.575 55.8689 141.575L54.7122 140.953C54.7122 140.953 53.7636 140.815 53.3472 140.539C52.9076 140.24 52.121 140.286 51.8665 140.216C51.612 140.147 51.3113 139.664 51.0105 139.687C50.7098 139.687 49.7612 139.503 49.5299 139.48C49.2985 139.48 48.5119 139.365 48.4656 139.065C48.4194 138.743 48.2574 138.49 47.841 138.329C47.4246 138.168 45.967 138.006 45.7357 137.799C45.5043 137.592 45.62 137.178 45.62 137.178C45.62 137.178 44.5558 136.97 43.9311 136.648C43.3065 136.326 41.5945 135.497 41.3863 134.968C42.3117 135.06 45.0648 134.968 45.1804 134.968C45.2961 134.968 45.2961 135.359 45.5043 135.382C45.7126 135.405 46.0827 135.336 46.0365 135.589C45.9902 135.842 46.0133 136.303 46.2447 136.326C46.476 136.349 46.8693 136.74 46.8693 136.74C46.8693 136.74 47.8179 136.165 48.1418 136.326C48.4656 136.464 49.044 136.717 48.9978 137.063C48.9515 137.408 49.1134 138.352 50.062 138.329C50.9874 138.306 51.3807 138.029 52.0747 138.006C52.7457 138.006 53.7867 138.214 53.9718 138.329C54.1569 138.444 54.5039 138.651 54.5039 138.651C54.5039 138.651 55.7995 138.789 56.6092 138.858C57.419 138.927 57.6735 139.227 57.766 139.388C57.8585 139.549 58.4601 140.032 58.7146 140.124C58.969 140.216 60.3109 140.263 60.5191 140.24C60.7042 140.193 61.2363 140.101 61.2594 139.825C61.2826 139.549 60.843 139.25 60.3109 139.088C59.7788 138.927 59.0153 138.789 58.4138 138.559C57.8123 138.352 57.257 138.168 56.9331 137.822C56.6092 137.477 56.1003 137.155 55.7764 137.201C55.4525 137.224 55.4988 137.017 55.1517 136.993C54.8047 136.947 53.9718 137.132 53.5554 136.993C53.139 136.855 52.121 136.004 51.3344 135.727C50.5478 135.451 48.7433 134.53 48.2574 134.576C47.7716 134.622 46.985 134.899 46.5686 134.576C46.129 134.254 45.5737 133.77 45.62 132.366C46.4992 131.998 47.494 132.481 47.6328 132.573C47.7716 132.665 47.9567 133.425 47.9567 133.425H49.3217C49.3217 133.425 49.8538 134.093 50.1777 134.162C50.5015 134.231 50.7329 134.783 50.918 134.899C51.1031 135.014 51.7971 134.968 51.9822 135.014C52.1673 135.06 52.5143 135.428 52.5143 135.428C52.5143 135.428 53.2778 135.474 53.995 135.635C54.7122 135.796 56.6555 136.625 57.2802 136.901C57.8817 137.155 58.4138 137.385 58.8765 137.523C59.3392 137.661 61.4445 138.075 62.6707 138.375C63.8968 138.651 68.3388 139.71 69.2179 139.848C70.0971 139.986 71.6471 140.17 71.6471 140.17C71.6471 140.17 72.0636 140.562 72.1792 140.792C72.2949 141.045 71.971 141.137 71.5546 141.114C71.1382 141.091 69.8195 141.068 69.4493 140.907C69.056 140.723 68.4776 140.999 67.9686 140.792C67.4597 140.585 67.344 140.401 66.8119 140.378C66.2566 140.355 65.4006 140.055 65.3312 140.378C65.2618 140.7 65.3312 141.229 65.3312 141.229L64.7991 141.345C64.7991 141.345 64.1745 141.92 64.267 142.196C64.3595 142.473 65.3775 142.703 65.632 142.933C65.8865 143.163 65.8402 143.463 65.8402 143.463L65.2155 143.877C65.2155 143.877 65.7939 144.337 66.3723 144.406C66.9507 144.475 67.8761 144.499 68.2694 144.614C68.6627 144.729 69.1717 144.89 69.5418 144.936C69.912 144.982 70.1896 144.729 70.4904 144.729C70.7911 144.729 71.0688 144.729 71.971 144.844C72.8733 144.959 74.9323 145.396 75.9966 145.581C77.0608 145.765 78.9579 146.041 80.2303 145.995C81.5027 145.972 83.5849 145.673 84.0245 145.465C84.4641 145.258 84.5566 144.729 84.5566 144.729L84.973 145.051C84.973 145.051 85.482 145.65 85.7134 145.581C85.9447 145.511 86.1066 145.373 86.5694 145.373C87.0321 145.373 87.3328 145.765 87.7261 145.788C88.4896 145.834 89.1605 144.89 89.6232 144.844C90.0859 144.798 90.618 145.258 92.2606 145.258C93.9032 145.258 93.9032 144.798 94.3659 144.729C94.8286 144.66 96.3324 144.683 96.7951 144.406C97.2578 144.13 97.7205 143.969 98.0676 143.877C98.4146 143.785 100.358 143.693 101.654 143.347C102.949 143.002 104.152 142.127 104.499 142.196C104.846 142.242 105.425 142.381 106.188 142.081C106.975 141.782 107.553 141.091 107.784 141.022C108.016 140.953 109.473 140.24 109.89 140.17C110.306 140.101 110.723 140.263 111.694 139.549C112.643 138.812 113.175 138.283 113.499 138.191C113.823 138.099 114.355 138.191 114.355 138.306C114.355 138.421 114.355 138.72 114.355 138.72C114.355 138.72 115.072 138.651 115.627 138.191C116.182 137.73 117.339 136.809 117.524 136.51C117.709 136.211 118.195 135.75 118.38 135.451C118.565 135.175 119.005 134.507 119.005 134.507H119.421C119.421 134.507 120.115 133.632 120.37 133.356C120.624 133.057 121.226 132.735 121.226 132.735V132.205C121.226 132.205 121.735 132.067 121.966 131.883C122.198 131.699 122.383 131.146 122.383 131.146C122.383 131.146 123.678 130.018 123.863 129.673C124.048 129.327 125.113 128.429 125.136 128.314C125.159 128.199 125.668 127.255 125.668 127.255C125.668 127.255 126.223 127.394 126.2 127.14C126.154 126.91 126.408 126.335 126.616 126.196C126.825 126.058 127.149 125.92 127.472 125.667C127.796 125.414 128.005 124.608 128.005 124.608C128.005 124.608 127.38 124.194 127.681 123.756C127.981 123.342 128.953 122.053 129.161 121.753C129.37 121.454 129.878 121.155 130.11 120.487C130.364 119.819 130.966 118.806 130.966 118.806C130.966 118.806 130.411 118.922 130.11 118.922C129.809 118.922 129.485 118.922 129.37 118.714C129.254 118.484 129.069 118.162 129.485 117.978C129.878 117.794 129.902 117.494 129.902 117.356C129.902 117.195 129.693 116.619 130.226 116.09C130.734 115.56 131.29 114.755 131.382 114.202C131.498 113.65 131.498 112.752 131.914 111.877C132.331 111.002 133.349 109.022 133.395 108.93C133.441 108.838 134.182 108.7 134.135 108.516C134.089 108.332 133.95 107.618 134.02 107.25C134.112 106.881 134.205 106.628 134.228 105.891C134.228 105.155 134.529 104.464 134.76 104.418C134.968 104.372 135.292 104.28 135.292 103.889C135.292 103.497 135.107 103.336 135.5 102.83C135.801 102.093 135.593 101.402 135.616 101.241C135.639 101.08 135.94 100.481 136.356 100.712C136.796 100.297 136.634 99.5605 136.68 99.031C136.727 98.5015 136.68 97.8569 137.004 97.3504C137.305 96.844 137.536 96.3835 137.536 95.762C137.536 95.1634 137.906 92.9533 137.953 92.7001C138.462 92.7001 138.809 93.2296 138.809 93.2296C138.809 93.2296 138.947 92.3318 138.924 91.8713C138.901 91.4109 138.531 90.9505 138.6 90.8123C138.67 90.6742 139.04 90.0296 139.133 89.6613C139.225 89.2929 138.924 88.6023 138.924 88.6023C138.924 88.6023 139.202 87.5663 139.248 87.1289C139.295 86.6915 139.572 85.2642 139.456 84.067C139.364 82.8929 139.156 82.2944 138.924 82.0642C138.693 81.857 138.6 81.1433 138.6 80.9131C138.6 80.6829 138.462 80.5908 138.716 80.1764C138.971 79.762 138.994 78.726 138.832 78.4958C138.67 78.2656 138.439 77.9663 138.415 77.7591C138.369 77.5519 138.531 77.1376 138.531 77.1376C138.531 77.1376 138.392 76.9534 138.323 76.6081C138.253 76.2627 138.207 75.3419 138.207 75.3419C138.207 75.3419 137.698 75.5491 137.467 75.0196C137.235 74.4901 136.912 72.0268 136.518 71.0138C136.125 70.0009 135.084 67.3304 133.025 66.1793C133.441 65.5117 133.164 65.0283 132.817 64.3836C132.47 63.739 131.845 63.2556 131.66 63.1175C131.452 62.9793 130.85 62.8182 130.711 62.588C130.573 62.3577 130.573 61.9664 130.295 61.7362C129.994 61.506 129.439 61.2067 129.439 61.2067C129.439 61.2067 129.647 62.0124 129.763 62.2657C129.855 62.5189 130.364 63.4858 130.387 63.739C130.387 63.9923 130.758 64.8901 130.92 65.0052C131.082 65.1203 131.336 65.9491 131.336 65.9491C131.336 65.9491 131.567 67.3074 131.961 67.2153C132.146 67.7908 132.447 70.2311 132.493 70.5764C132.516 70.9218 132.701 71.6124 132.909 72.1649C133.117 72.6944 133.534 73.7764 133.858 74.1678C133.372 74.5592 132.932 75.8714 132.909 76.2627C132.909 76.6541 132.608 78.68 132.493 79.0023C132.377 79.3246 131.914 79.739 131.637 79.739C131.382 79.739 130.92 79.9001 130.781 79.9462C130.665 79.9922 130.434 79.8081 130.156 80.0613C129.878 80.3145 129.578 80.867 129.208 81.0052C128.884 80.5908 128.282 79.5318 128.143 79.3246C128.005 79.0944 127.403 78.3807 127.403 78.3807C127.403 78.3807 128.352 76.9073 128.352 75.8484C128.352 74.7894 127.449 73.293 127.403 73.0167C127.357 72.7405 127.403 71.9807 127.287 71.8656C127.195 71.7505 126.987 71.4513 126.547 71.2441C126.107 71.0138 125.182 70.5074 125.182 70.5074C125.182 70.5074 125.136 71.7045 125.298 72.0959C125.46 72.4872 126.084 72.3491 126.362 72.8325C126.616 73.316 126.593 74.2599 126.57 74.5131C126.547 74.7663 126.501 75.0656 126.686 75.2498C126.871 75.434 126.963 76.3088 126.57 76.7232C126.177 77.1376 126.061 77.1836 125.714 77.1376C125.39 77.0915 125.298 76.6081 125.298 76.6081L124.881 76.2858C124.881 76.2858 124.858 77.0685 124.766 77.3448C124.673 77.621 125.228 78.657 125.39 78.6109C125.575 78.5649 125.946 78.1505 126.131 78.1966C126.316 78.2426 127.033 78.703 126.987 78.9332C126.94 79.1635 126.524 79.4627 126.454 79.6699C126.385 79.8771 126.339 80.2915 126.339 80.2915C126.339 80.2915 125.529 80.2915 125.39 80.2915C125.251 80.2915 124.904 79.785 124.65 79.762C124.395 79.762 123.493 80.0843 123.493 80.0843C123.493 80.0843 122.521 77.9663 122.429 77.3448C122.336 76.7232 122.244 76.4469 122.105 76.2858C121.989 76.1246 121.48 75.3189 121.157 74.6973C120.833 74.0987 120.301 73.0397 119.884 72.6023C119.468 72.1419 119.445 71.8887 119.028 71.3361C118.635 70.8067 118.08 70.2771 118.08 70.2771H117.756C117.756 70.2771 117.894 70.0239 117.64 69.7477C117.385 69.4714 116.83 69.2412 116.784 68.8959C116.738 68.5505 116.923 68.4585 116.576 68.1592C116.229 67.8599 115.928 67.1002 115.72 66.893C115.535 66.6858 114.702 66.1333 114.656 65.834C114.609 65.5577 113.8 65.0973 113.8 65.0973C113.8 65.0973 113.036 64.5218 112.944 64.3606C112.874 64.1995 112.504 63.6239 112.203 63.4167C111.902 63.2095 111.255 63.0024 111.255 63.0024C111.255 63.0024 110.699 62.8642 110.399 62.6801C110.098 62.4959 109.057 62.1045 108.594 61.8283C108.131 61.552 107.53 61.506 107.53 61.506C107.53 61.506 107.137 61.4369 106.905 61.2988C106.674 61.1606 105.448 60.8383 103.62 60.6772C101.792 60.516 101.26 60.6081 100.543 60.6772C99.849 60.7462 99.8258 61.1837 99.5945 61.2067C99.3631 61.2067 97.281 61.1606 96.9571 61.2067C96.6332 61.2527 93.4868 62.5189 92.7233 62.7952C91.983 63.0714 89.9008 64.4757 89.2299 64.798C88.559 65.0973 87.9575 65.6959 87.7493 65.6498C87.541 65.6038 87.1015 66.4786 86.8932 66.5016C86.685 66.5016 84.7879 67.5836 83.3998 69.034C82.0117 70.4843 81.9423 70.8297 81.5953 71.129C81.2483 71.4282 81.1557 71.0829 80.855 71.4513C80.5542 71.8196 78.8885 75.0196 78.5183 75.6642C78.1713 76.2858 77.3384 78.2886 77.0376 79.5548C76.7369 80.821 75.904 83.4685 75.7652 84.5965C75.6264 85.7246 75.6727 89.8224 75.7652 90.8123C75.8578 91.8023 76.6443 92.7922 76.7138 92.9073C76.7832 93.0224 76.9451 93.4828 77.1302 93.644C77.3384 93.8051 77.5698 93.8742 77.5466 94.1735C77.5466 94.4728 78.0093 94.9102 78.1713 95.1174C78.3332 95.3246 79.1661 96.0613 79.328 96.2684C79.49 96.4756 79.5825 97.0742 79.7445 97.1202C79.9295 97.1663 80.4154 97.1202 80.4848 97.3274C80.5542 97.5346 81.6184 98.4785 81.9654 98.6857C82.3125 98.8929 82.6826 99.1231 82.914 99.1001C83.1453 99.0771 83.6543 99.2152 83.6543 99.2152C83.6543 99.2152 83.7469 99.5145 84.279 99.5375C84.8342 99.5375 85.644 98.8008 85.644 98.8008C85.644 98.8008 85.9447 98.1792 86.1761 98.2713C86.3843 98.3634 86.6388 98.7548 87.1246 98.8008C87.6104 98.8468 88.0037 98.6627 88.1888 98.6857C88.3739 98.7087 88.397 99.1001 88.397 99.1001C88.397 99.1001 88.7672 99.0771 89.0217 99.1001C89.2762 99.1231 89.1374 99.4454 89.3456 99.5145C89.5538 99.5835 89.8314 99.6526 89.8777 99.8368C89.924 100.021 89.6695 100.55 89.762 100.896C89.8546 101.241 90.0859 101.494 90.3867 101.955C90.6874 102.392 90.618 103.037 90.8031 103.221C90.9882 103.405 92.0293 104.878 92.3994 105.316C92.7696 105.776 94.6667 107.963 95.0368 108.055C95.407 108.148 95.6152 108.171 95.9854 108.47C96.3556 108.769 96.8877 109.276 97.1421 109.414C97.3966 109.552 98.0907 109.598 98.4146 109.621C98.7385 109.667 99.687 109.506 99.687 109.506C99.687 109.506 100.242 108.516 100.312 108.447C100.404 108.401 101.168 108.355 101.376 108.447C101.584 108.539 101.376 108.769 101.376 108.769C101.376 108.769 101.977 108.723 102.324 108.769C102.671 108.815 102.926 108.907 103.065 109.091C103.204 109.253 103.481 109.483 103.689 109.506C103.921 109.529 105.193 109.598 105.587 109.621C106.003 109.621 106.211 109.414 106.211 109.414C106.211 109.414 106.581 109.207 106.743 109.207C106.905 109.207 107.484 109.322 107.484 109.322V109.529C107.484 109.529 109.172 109.713 109.381 109.529C109.589 109.345 110.26 108.907 110.537 108.585C110.815 108.263 111 108.055 111.278 108.055C111.555 108.055 112.805 108.148 113.175 107.94C113.545 107.733 114.031 107.549 114.239 107.319C114.447 107.066 115.188 106.053 115.188 106.053C115.188 106.053 113.568 109.736 110.214 111.532C106.882 113.327 105.957 113.673 105.679 113.857C105.378 114.041 99.6408 115.676 98.2758 115.745C96.9108 115.814 94.3197 115.745 93.6256 115.745C92.9315 115.745 91.474 115.676 90.5486 115.745C89.6463 115.814 89.3919 116.09 89.2762 116.274C88.4664 116.274 87.8649 116.021 87.6798 115.952C87.5179 115.883 86.8007 115.906 86.5231 115.837C86.2455 115.768 86.0141 115.883 85.1581 115.514C84.279 115.146 83.608 115.031 83.0528 114.985C82.4976 114.939 81.6416 114.939 80.9475 114.663C80.2303 114.409 78.8422 113.972 77.8705 113.604C76.8988 113.235 74.8629 112.476 73.4285 111.808C71.9942 111.14 70.6523 110.749 70.259 110.45C69.8657 110.15 69.3105 109.506 69.3105 109.506C69.3105 109.506 68.6396 109.184 68.3619 109.091C68.0612 108.976 67.5059 108.884 67.5059 108.884C67.5059 108.884 67.2977 108.677 67.182 108.47C67.0664 108.263 66.8119 107.963 66.5574 107.848C66.2798 107.733 65.6088 107.411 65.1924 107.112C64.7528 106.812 64.3364 106.628 63.92 106.168C63.5035 105.707 62.8558 105.362 62.2311 105.109C61.6065 104.855 60.9355 104.855 60.8661 104.694C60.7967 104.533 60.4728 104.257 60.334 104.073C60.1952 103.889 59.3855 102.691 58.969 102.392C58.5526 102.093 57.2339 101.126 56.3316 100.067C55.4293 99.031 52.8382 95.6469 52.8382 95.6469L52.63 94.9102C52.63 94.9102 50.9874 92.2857 50.2933 90.8123C49.5993 89.339 49.3216 88.8095 49.2291 88.3951C49.1366 87.9807 48.3962 85.8627 47.9567 84.9188C47.5171 83.998 46.985 82.6167 47.0081 81.6498C47.0313 80.6829 46.9619 78.8872 46.7999 78.4958C46.638 78.1045 46.4066 76.9994 46.476 75.0196C46.5454 73.0397 46.8925 71.8656 46.8925 71.8656L47.1238 71.8196ZM128.097 85.2872C128.166 84.9188 128.722 84.6656 128.722 84.6656C129.022 85.0109 128.907 85.9548 128.93 86.2541C128.976 86.5534 128.606 87.1059 128.606 87.1059L128.398 86.7836C128.398 86.7836 128.375 86.3692 128.19 86.162C128.005 85.9318 128.005 85.7016 128.074 85.3102L128.097 85.2872ZM124.604 85.7016C124.65 85.5634 124.881 84.8728 124.928 84.4354C124.951 84.021 124.835 83.975 124.812 83.5836C124.812 83.2152 125.02 82.6397 125.02 82.6397C125.506 82.8699 125.83 83.4224 125.876 83.6987C125.922 83.975 125.853 84.4354 125.876 84.7577C125.899 85.08 125.691 85.8397 125.552 86.1159C125.437 86.4152 124.997 86.8987 124.812 86.7375C124.627 86.5994 124.557 85.8167 124.604 85.6785V85.7016ZM83.5849 122.628C84.3252 122.582 85.1812 122.513 85.1812 122.513C85.1812 122.513 85.6902 122.858 86.4537 122.835C87.194 122.835 87.7724 122.49 88.3508 122.513C88.9523 122.536 89.3687 122.858 90.0396 122.835C90.7337 122.789 91.5203 122.398 91.8442 122.421C92.1681 122.421 92.5845 122.421 92.5845 122.421C92.5845 122.421 92.3763 123.48 92.1681 123.687C91.9599 123.894 91.3121 123.963 90.6874 123.894C90.0628 123.825 89.068 123.802 88.1425 123.779C87.2171 123.779 85.5514 123.71 84.3484 123.664C83.1453 123.618 82.0117 123.296 81.1789 123.25C80.346 123.204 80.1609 123.204 79.5825 122.628C79.5825 122.628 82.8446 122.674 83.608 122.628H83.5849ZM78.9347 133.886C79.3512 134.093 79.837 134.599 80.2072 135.037C80.5773 135.474 80.8781 135.451 81.1557 135.451C81.4333 135.451 83.261 134.829 83.261 134.829C83.261 134.829 83.3073 133.955 83.4692 133.886C83.6312 133.817 84.3252 133.632 85.0656 133.678C85.8059 133.724 85.9216 133.886 86.1298 134.001C86.338 134.116 86.7544 134.415 86.7544 134.415C86.7544 134.415 87.0783 134.07 87.2865 133.886C87.4948 133.701 89.2299 133.356 90.1322 133.264C91.0345 133.172 91.4046 133.264 92.1449 133.379C92.8853 133.471 93.2092 133.494 93.2092 133.494C93.2092 133.494 93.2786 133.425 93.4174 133.08C93.5562 132.735 94.042 132.827 94.3659 132.873C94.7129 132.919 95.569 132.735 96.9108 132.665C98.2526 132.596 98.0907 132.435 98.5071 132.251C98.9004 132.067 99.6639 132.044 99.6639 132.044C99.6639 132.044 99.6176 132.182 99.2475 132.573C98.8773 132.965 97.8825 132.965 97.3504 133.103C96.7951 133.241 95.6384 133.264 94.5047 133.425C93.348 133.586 93.348 134.576 93.348 134.576C93.348 134.576 92.7696 134.185 92.1912 134.254C91.5897 134.323 91.6591 134.876 91.6591 134.876H90.8031C90.8031 134.876 91.127 135.727 90.271 136.142C89.8314 136.349 89.3225 136.257 89.3225 136.257C89.3225 136.257 88.4664 136.579 87.3097 136.579C86.1761 136.579 85.829 136.579 85.829 136.579C85.829 136.579 85.3201 136.694 84.464 136.786C83.608 136.878 82.9834 136.579 82.9834 136.579C82.9834 136.579 81.8035 136.763 81.2945 136.786C80.7856 136.809 79.3743 136.717 78.6571 136.579C77.9399 136.418 77.5004 136.28 76.9682 135.958C76.4361 135.635 76.2742 134.922 76.2279 134.806C76.1816 134.691 75.6033 134.599 75.6033 134.599L76.2279 134.484V134.07C76.2279 134.07 76.3436 133.77 77.5004 133.655C78.1481 133.586 78.5646 133.77 78.981 133.978L78.9347 133.886ZM97.7437 134.622C97.7437 134.622 97.3041 135.06 97.0033 135.037C96.7026 135.037 96.2167 135.014 95.9391 135.037C95.6615 135.06 95.407 135.244 95.407 135.244C95.407 135.244 94.6667 135.336 94.551 135.359C94.4353 135.359 94.1346 135.474 94.1346 135.474C94.1346 135.474 94.2734 135.152 94.7592 135.06C95.2451 134.968 95.4996 135.06 95.7078 134.945C95.916 134.829 96.2167 134.645 96.5638 134.622C96.9108 134.622 97.281 134.622 97.7205 134.622H97.7437ZM76.066 121.891C76.76 122.122 77.1302 122.513 77.1302 122.513C77.1302 122.513 76.5518 122.513 76.066 122.398C75.6033 122.283 75.2794 122.168 74.9092 121.661C74.9092 121.661 75.3719 121.661 76.066 121.868V121.891ZM54.8278 129.143C54.8278 129.143 55.7301 129.028 56.7249 129.35C57.7429 129.673 61.2132 131.123 63.3879 131.883C64.8454 132.389 65.0767 132.297 65.0767 132.297C65.0767 132.297 66.488 132.804 67.2977 133.034C68.1074 133.264 68.2463 132.919 68.2463 132.919C68.2463 132.919 68.894 133.356 69.6112 133.54C70.3284 133.724 70.4672 133.218 70.4672 133.218C70.4672 133.218 72.0404 134.185 72.8964 134.484C71.4158 134.553 70.4672 134.53 70.259 134.484C70.0508 134.438 69.403 134.852 69.1023 134.806C68.8015 134.76 68.4313 134.553 68.4776 134.185C68.5007 133.817 68.5933 133.448 68.2694 133.448C67.9455 133.448 67.5985 133.886 67.2052 133.863C66.8119 133.863 66.5805 133.84 66.141 133.54C65.7014 133.241 65.0536 133.218 64.776 133.218C64.4984 133.218 64.1976 133.471 63.1796 133.218C62.1848 132.965 60.7042 132.527 59.478 131.952C58.2518 131.376 57.4652 131.261 56.6324 130.801C55.7995 130.34 55.2443 129.834 55.036 129.857C54.8278 129.857 54.5039 129.742 54.5039 129.742C54.5039 129.742 54.5039 129.35 54.8278 129.12V129.143ZM55.1517 133.356C56.5861 133.863 60.843 135.267 62.7632 135.773C64.6834 136.28 66.141 136.625 66.141 136.625L65.9327 136.211C65.9327 136.211 68.1074 137.178 70.0508 137.569C72.0173 137.96 74.5853 138.006 75.2331 137.983C75.8809 137.983 77.5235 138.122 77.9862 138.191C78.4489 138.26 78.981 138.214 79.3512 138.191C79.7445 138.168 80.6005 138.559 81.5721 138.605C83.4461 138.697 83.3073 138.237 84.0013 138.283C84.8111 138.352 85.9447 138.145 86.6388 138.075C87.3559 137.983 88.4433 137.96 88.4433 137.96C88.4433 137.96 89.1605 137.891 89.5075 137.845C89.8546 137.799 90.2479 138.099 91.4046 138.052C94.713 137.661 99.2706 136.165 99.6408 135.958C100.034 135.727 100.242 136.142 100.913 135.958C101.584 135.773 102.718 134.876 102.926 134.899C103.134 134.945 103.99 135.198 105.263 134.783C106.535 134.369 107.16 133.84 107.16 133.84C107.16 133.84 107.923 133.701 108.316 133.517C108.71 133.333 109.705 132.573 110.005 132.251C110.306 131.929 111.116 131.791 111.486 131.837C111.856 131.883 112.643 131.629 112.643 131.629C112.643 131.629 112.735 131.399 112.967 131.215C113.198 131.008 115.581 129.189 116.044 128.798C116.506 128.406 116.876 128.061 117.524 128.061C117.224 129.12 116.668 129.005 116.668 129.005C116.668 129.005 116.483 129.419 116.044 129.857C115.604 130.294 113.059 132.573 110.445 133.863C107.831 135.129 106.095 135.75 105.795 135.75C105.494 135.75 104.684 136.119 104.314 136.28C103.944 136.441 102.348 137.316 101.977 137.431C101.607 137.546 101.121 137.546 101.121 137.546C101.121 137.546 100.659 137.845 100.497 137.868C100.312 137.868 99.6176 137.914 99.2243 137.983C98.831 138.052 98.4377 138.398 98.2758 138.398C98.1138 138.398 97.5355 138.513 97.5355 138.513L97.8593 138.72L97.0033 138.835H96.5869L96.9108 139.042C96.9108 139.042 96.7257 139.365 96.0548 139.365C95.3839 139.365 94.7361 139.595 93.5099 139.779C92.3069 139.986 90.965 140.009 90.6643 139.986C90.3635 139.986 90.0396 139.871 90.0396 139.871C90.0396 139.871 89.8083 140.032 88.9754 140.193C88.1426 140.332 86.8701 140.424 85.8984 140.401C84.9499 140.401 84.2096 140.193 84.2096 140.193C84.2096 140.193 83.4461 140.216 83.261 140.309C83.0759 140.378 82.5207 140.424 80.9244 140.424C79.328 140.424 78.7265 140.193 78.4952 140.216C78.2638 140.216 78.0325 140.193 77.6392 140.216C77.2459 140.24 76.7832 140.493 76.5749 140.424C76.3899 140.355 75.8346 140.078 75.7189 140.009C75.6264 139.94 73.5442 139.618 72.9658 139.595C72.3875 139.549 71.7165 139.48 71.3695 139.388C71.0225 139.273 70.5366 138.904 70.2128 138.858C69.8889 138.812 69.3105 139.111 69.1485 139.065C68.9866 139.019 68.9403 138.743 68.9403 138.743C68.9403 138.743 67.4828 138.858 67.0432 138.743C66.6037 138.628 65.6088 138.214 65.1461 138.006C64.6834 137.799 62.8789 137.523 62.3931 137.592C61.9072 137.638 61.537 137.546 61.0281 137.385C60.5191 137.224 55.9152 135.543 54.689 135.06C53.4629 134.576 51.4732 133.724 50.8948 133.172C50.2933 132.596 49.1134 132.412 48.6739 132.228C48.2343 132.044 47.8873 131.676 47.6096 131.284C47.332 130.893 46.823 131.054 46.4529 130.133C46.4529 130.133 46.9619 130.064 47.6096 130.34C48.2574 130.617 53.6942 132.896 55.1055 133.402L55.1517 133.356ZM47.0081 125.368C48.188 125.897 50.0851 126.634 50.0851 126.634L49.9694 126.956C49.9694 126.956 49.6455 127.301 49.553 127.37C49.044 127.255 48.6045 127.37 47.6559 126.749C46.7074 126.127 45.9902 125.782 45.2267 124.424C45.2267 124.424 45.8514 124.838 47.0313 125.368H47.0081Z" fill="#D61518"/>
</svg>
