<svg width="16" height="17" viewBox="0 0 16 17" fill="none" xmlns="http://www.w3.org/2000/svg">
<g id="blank" clip-path="url(#clip0_1172_4554)">
<path id="Vector" d="M16 6.73408H14.9V2.03408H10.2V0.934082H15.5C15.8 0.934082 16 1.13408 16 1.43408V6.73408Z" fill="#BB2000"/>
<path id="Vector_2" d="M14.6 16.934H0.5C0.2 16.934 0 16.734 0 16.434V2.33398C0 2.03398 0.2 1.83398 0.5 1.83398H7.5V2.93398H1.1V15.834H14V9.33398H15.1V16.334C15.1 16.634 14.9 16.834 14.6 16.834V16.934Z" fill="#BB2000"/>
<path id="Vector_3" d="M15.0371 1.12958L7.61249 8.5542L8.39031 9.33202L15.8149 1.9074L15.0371 1.12958Z" fill="#BB2000"/>
</g>
<defs>
<clipPath id="clip0_1172_4554">
<rect width="16" height="16" fill="white" transform="translate(0 0.934082)"/>
</clipPath>
</defs>
</svg>
