<?xml version="1.0" encoding="UTF-8"?>
<svg id="_レイヤー_2" data-name="レイヤー 2" xmlns="http://www.w3.org/2000/svg" width="700" height="248.3" viewBox="0 0 700 248.3">
  <defs>
    <style>
      .cls-1 {
        fill: #fff;
      }

      .cls-2 {
        fill: #d61518;
        fill-rule: evenodd;
      }
    </style>
  </defs>
  <g id="_レイヤー_1-2" data-name="レイヤー 1">
    <g>
      <path class="cls-2" d="m79.7,122.3s0-3.6.2-4.8c.2-1.2,1.6-5.9,3-8.1,1.4-2.2,1.7-3.2,1.8-3.6,0-.4.6-1.8.9-2,.3-.2.8-1.7,1.3-2.9.4-1.2,3.3-4.7,4.8-6.4,1.5-1.7,2.1-3.1,5.7-6.6,3.7-3.5,6.2-5.2,8.1-6.4,1.9-1.2,4-2.9,6.8-4.7,2.8-1.8,3.9-2.6,8.9-4.1,5-1.6,6.8-2.2,7.3-2.3.5-.1,2.8-.5,3.2-.5.4,0,2.9,0,3.4,0,.5,0,2.7.4,2.7.4,0,0,1.8-.4,2.7-.4.9,0,7.9,2.3,9.7,2.9,1.8.5,9.1,3.3,11.3,4.1,2.2.8,4.8,1.5,5.9,1.8,1.1.3,3.5,1.8,4.5,3,3,.2,3,.2,4.5.9,1.5.7,2.4,1.2,3.9,2.7,1.7,0,2.5-.4,2.9-.4.4,0,1.4.7,2,.9.5.2,1.5.9,2.1,1.1.6.1,3.8,1.1,5.4,1.6,1.6.6,2.7.9,3.2.9.5,0,1.4-.3,2.9,0,1.4.3,4.8.8,5.5.9.8.1,2.7.9,5.4.9,2.6,0,7.8-1.3,8.8-1.3,1,0,2.6.4,4.1.4,1.5,0,4.1-.6,5-1.4,1.8,0,2.5.2,3.8-.5,1.3-.8,4.5-3.5,5.2-6.1.7-2.6.3-4.6-.2-5.7-.5-1.1-1.9-3.8-2.1-4.5-.3-.7-.2-2.5-.5-3-.3-.6-.7-1.2-.7-2,0-.7.7-2.5.9-3.2.2-.8.6-3.3-.2-6.1-.8-2.8-1.2-3.9-1.3-4.3,0-.4.3-1.5-.7-3.8-1-2.3-2.9-5.2-3.4-5.5-.5-.4-2.3-1-2.7-1.4-.4-.5-1.3-2.5-1.3-2.5l.2-.5s-2.3-1.7-3.2-2.3c-.9-.7-1.8-1.4-1.8-1.4,0,0,.4-1.1-.9-2.9-2.3-3-3.8-2.7-4.1-3-.4-.3-1-.5-1.4-1.6-.4-1.1-.6-2.2-.9-2.7-.3-.5-1.1-1.1-1.1-1.1,0,0-2.6.3-3,0-.4-.3-2.6-2-3.2-2.5-.6-.5-1.4-1.1-1.6-1.6-.2-.6-.1-.4-1.3-.9-1.1-.5-1.4-1.5-1.6-1.8-.2-.3-1.8-1-2.5-1.3s-2-.7-2.5-1.1c-.5-.4-1.5-.8-2.5-1.3-1-.4-2.7-.9-2.7-.9,0,0-.4-.8-.9-1.3-.5-.4-1.1-.9-1.4-.9-.3,0-.9,0-.9,0l-.2-.9s-.8-.3-.9-.5c0-.2-.2-.5-.5-.7-.3-.3-3.6-2.1-4.7-2.5-1-.4-5.5-2-6.6-2.7-1.2-.7-1.9-1.1-2.1-1.1-.2,0-.2.3-1.1.2-.8-.1-1.5-.5-1.8-.7-.3-.2-1.3-.5-1.3-.5l-.2.5s-.3,0-.9-.4c-.6-.3-1.9-.3-2.1-.4-.2,0-.6-.7-1.4-.7-.9,0-2.4-.2-2.7-.2-.3,0-1.4.2-1.6.2-.2,0-1.4,0-2,0-.6,0-1.8.4-1.8.4,0,0-1.2-.4-1.8-.5-.6-.1-1.2-.7-2.9-.5-1,0-4.1,1.1-4.7,1.1s-1.3-.5-1.8-.5-1.6.9-2.3.9-5.2.4-7.7.4-7.2.2-8.8.2-4,1.7-4.8,1.8c-.8,0-3-.2-5.9.7-2.9,1-10.4,3-12.3,3.6-2,.6-4.7,2-5.9,2.3-1.2.3-3,.3-4.8,1.3-1.9.9-5.3,1.9-6.1,2-.8.1-4.7,2.2-5.4,2.3-.7,0-3.2.8-5.4,2-2.1,1.2-3.7,1.8-4.3,2.1-.5.4-1.8,1.5-2.7,2-.9.5-4.5,2.1-5.7,3-1.3,1-2.1,1.9-2.7,2.1-.6.3-1.3.7-1.6.9-.3.2,0,.9-.4.9-.3,0-2.5,1-3.2,1.6-.7.6-.8,1.4-1.4,2-.6.5-1.5.9-2,.9-.5,0-1.5.8-1.8,1.3-.3.4-3.8,3.4-5,4.5-1.2,1.1-5.1,4.3-8.8,8.4-3.7,4.1-8.6,10.5-10.2,12.7-1.6,2.2-2.6,3.7-3.4,4.8-.8,1.2-2.9,3.8-3.6,5.4-.7,1.6-2.1,3.7-3,5.4-1,1.7-2.6,5.5-3,6.1-.4.6-1.6,3.2-2.5,5-.9,1.8-3,6.9-4.1,10.9-1.1,4-2.7,8.7-3,10.7-.3,2.1-.9,6.1-1.1,7.3-.2,1.3-.9,6.7-.9,8.4,0,1.7-.1,7.9.2,10.2.3,2.3.9,7.2.9,7.2,0,0-.4.6-.2,1.3.2.6,1.2,5.9,1.3,6.6,0,.7,1.1,5,1.6,7,.6,1.9,2.2,6.6,2.5,7.2.3.5.2,1.3.4,1.6.1.3,1.4,1.9,1.4,2.3,0,.4.4,2.1.4,2.1,0,0,1.6,3,2,3.9.3.9,2,3.1,2,3.8,0,.6-.2,1.6.2,1.8.4.2.8.6,1.1.9.2.3,1.9,3.5,2.3,3.9.4.4,1.1,1.8,1.3,2.1.1.4,0,.8.2,1.1,0,.3.8.6,1.3.9.5.3.9.9,1.1,1.4s.3,1.2,1.1,2.1c.8.9,1.8,1.9,2.1,2.1.3.2.8.5.9,1.1.1.6.4,1.7.9,2,.5.3,1.5,1,1.8,1.4.3.5,2.9,3.5,3.4,4.1.5.7,2.3,2.3,2.7,2.5.4.2,1.2,1.5,1.4,1.6.2.1,2.3,1.1,2.5,1.4.2.3.5,1.7.9,2,.4.3,1.2.6,1.8,1.1.6.4,2.7,2.7,3.2,2.9.6.2,1.4.7,1.6.9.2.2,2,1.4,2.3,1.6.3.2,3.5,3.1,4.3,3.6.8.5,1.3.7,1.3.7v.5s2.3.8,3.2,1.4c.9.7,2.1,2.1,2.5,2.3.4.3,2.6,1.2,3,1.3.4,0,.7,0,.9-.5.2-.5.9-.5,1.3-.4.3.1.4.7.4,1.1s0,1.5.4,1.8c.4.3,1.7,1.9,3.8,2.9,2.1,1,8.7,4.3,11.1,5.2,2.4.9,3.2,1.1,3.2,1.1,0,0-.1.7.2.9.3.2.7.2,1.3,0,.5-.2,1.4.3,2,.5.5.2,1.9.5,2.5.5.6,0,1,0,1.3,0,.3,0,.9.9,1.8.9.9,0,2.2,0,2.7.4.5.3,1.3.2,1.3.2l-2-1.1s-1.6-.2-2.3-.7c-.7-.5-2.1-.4-2.5-.5-.4-.1-.9-.9-1.4-.9-.5,0-2.1-.3-2.5-.4s-1.7-.2-1.8-.7c0-.5-.3-1-1.1-1.3-.7-.3-3.2-.5-3.6-.9-.4-.4-.2-1.1-.2-1.1,0,0-1.8-.3-2.9-.9-1.1-.5-4-2-4.3-2.9,1.6.1,6.2,0,6.4,0,.2,0,.2.7.5.7.4,0,1,0,.9.4,0,.4,0,1.2.4,1.3.4,0,1.1.7,1.1.7,0,0,1.6-1,2.1-.7.5.2,1.5.7,1.4,1.3,0,.6.2,2.2,1.8,2.1,1.6,0,2.3-.5,3.4-.5,1.2,0,2.9.3,3.2.5.3.2.9.5.9.5,0,0,2.2.2,3.6.4,1.4.1,1.8.6,2,.9.1.3,1.2,1.1,1.6,1.3.4.1,2.7.3,3,.2.3,0,1.2-.2,1.3-.7,0-.5-.7-1-1.6-1.3-.9-.3-2.2-.5-3.2-.9-1-.4-1.9-.7-2.5-1.3-.6-.6-1.4-1.1-2-1.1-.6,0-.5-.3-1.1-.4-.6,0-2,.2-2.7,0-.7-.2-2.4-1.7-3.8-2.1-1.3-.5-4.4-2-5.2-2-.8,0-2.1.5-2.9,0-.7-.5-1.7-1.4-1.6-3.8,1.5-.6,3.2.2,3.4.4.2.2.5,1.4.5,1.4h2.3s.9,1.1,1.4,1.3c.5.1.9,1.1,1.3,1.3.3.2,1.5.1,1.8.2.3,0,.9.7.9.7,0,0,1.3,0,2.5.4,1.2.3,4.5,1.7,5.5,2.1,1,.4,1.9.8,2.7,1.1.8.2,4.4,1,6.4,1.4,2.1.5,9.6,2.3,11.1,2.5,1.5.2,4.1.5,4.1.5,0,0,.7.7.9,1.1.2.4-.4.6-1.1.5-.7,0-2.9,0-3.6-.4-.7-.3-1.7.2-2.5-.2-.9-.3-1-.7-2-.7-.9,0-2.4-.5-2.5,0-.1.5,0,1.4,0,1.4l-.9.2s-1,1-.9,1.4c.2.5,1.9.9,2.3,1.3.4.4.4.9.4.9l-1.1.7s1,.8,2,.9c1,.1,2.6.1,3.2.4.7.2,1.5.5,2.1.5.6,0,1.1-.4,1.6-.4.5,0,1,0,2.5.2,1.5.2,5,.9,6.8,1.3,1.8.3,5,.8,7.2.7,2.1,0,5.7-.5,6.4-.9.8-.4.9-1.3.9-1.3l.7.5s.9,1,1.3.9c.4-.1.7-.4,1.4-.4.8,0,1.3.7,2,.7,1.3,0,2.4-1.5,3.2-1.6.8,0,1.7.7,4.5.7,2.8,0,2.8-.8,3.6-.9.8,0,3.3,0,4.1-.5.8-.5,1.6-.7,2.1-.9.6-.2,3.9-.3,6.1-.9,2.2-.6,4.2-2.1,4.8-2,.6,0,1.5.3,2.9-.2,1.3-.5,2.3-1.7,2.7-1.8.4-.1,2.9-1.3,3.6-1.4.7,0,1.4.2,3-1.1,1.6-1.2,2.5-2.1,3-2.3.5-.2,1.4,0,1.4.2,0,.2,0,.7,0,.7,0,0,1.2-.1,2.1-.9.9-.8,2.9-2.4,3.2-2.9.3-.5,1.1-1.3,1.4-1.8.3-.5,1.1-1.6,1.1-1.6h.7s1.2-1.5,1.6-2c.4-.5,1.4-1.1,1.4-1.1v-.9s.9-.2,1.3-.5c.4-.3.7-1.3.7-1.3,0,0,2.2-1.9,2.5-2.5.3-.6,2.1-2.1,2.1-2.3,0-.2.9-1.8.9-1.8,0,0,1,.2.9-.2,0-.4.4-1.4.7-1.6.4-.2.9-.5,1.4-.9.5-.4.9-1.8.9-1.8,0,0-1-.7-.5-1.4.5-.7,2.1-2.9,2.5-3.4.4-.5,1.2-1,1.6-2.1.4-1.1,1.4-2.9,1.4-2.9,0,0-1,.2-1.4.2-.5,0-1.1,0-1.3-.4-.2-.4-.5-.9.2-1.3.7-.3.7-.8.7-1.1,0-.3-.3-1.3.5-2.1.9-.9,1.8-2.3,2-3.2.2-1,.2-2.5.9-3.9.7-1.5,2.4-4.9,2.5-5,0-.2,1.3-.4,1.3-.7,0-.3-.3-1.5-.2-2.1.1-.6.3-1.1.4-2.3,0-1.3.5-2.4.9-2.5.4,0,.9-.2.9-.9,0-.7-.3-1,.4-1.8.5-1.3.2-2.4.2-2.7,0-.3.6-1.3,1.3-.9.7-.7.5-2,.5-2.9,0-.9,0-2,.5-2.9.5-.9.9-1.6.9-2.7,0-1,.6-4.8.7-5.2.8,0,1.4.9,1.4.9,0,0,.3-1.5.2-2.3,0-.8-.7-1.5-.5-1.8.1-.2.7-1.3.9-2,.2-.6-.4-1.8-.4-1.8,0,0,.5-1.8.5-2.5,0-.7.5-3.2.4-5.2-.2-2-.5-3-.9-3.4-.4-.4-.5-1.6-.5-2,0-.4-.2-.5.2-1.3.4-.7.5-2.5.2-2.9-.3-.4-.7-.9-.7-1.3,0-.3.2-1.1.2-1.1,0,0-.2-.3-.4-.9-.1-.6-.2-2.1-.2-2.1,0,0-.9.3-1.3-.5-.4-.9-1-5.1-1.6-6.8-.7-1.7-2.4-6.3-5.9-8.2.7-1.1.2-2-.4-3-.6-1.1-1.6-1.9-2-2.1-.3-.2-1.4-.5-1.6-.9-.2-.4-.2-1.1-.7-1.4-.5-.4-1.4-.9-1.4-.9,0,0,.4,1.4.5,1.8.2.4,1,2.1,1.1,2.5,0,.4.6,2,.9,2.1.3.2.7,1.6.7,1.6,0,0,.4,2.3,1.1,2.1.3,1,.8,5.1.9,5.7,0,.6.4,1.8.7,2.7.3.9,1.1,2.7,1.6,3.4-.8.7-1.6,2.9-1.6,3.6,0,.7-.5,4.1-.7,4.7-.2.5-1,1.3-1.4,1.3-.4,0-1.2.3-1.4.4-.2,0-.6-.2-1.1.2-.5.4-1,1.4-1.6,1.6-.5-.7-1.6-2.5-1.8-2.9-.2-.4-1.3-1.6-1.3-1.6,0,0,1.6-2.5,1.6-4.3s-1.5-4.3-1.6-4.8c0-.5,0-1.8-.2-2-.2-.2-.5-.7-1.3-1.1-.7-.4-2.3-1.3-2.3-1.3,0,0,0,2.1.2,2.7.3.6,1.3.4,1.8,1.3.4.8.4,2.4.4,2.9,0,.4-.1.9.2,1.3.3.3.5,1.8-.2,2.5-.7.7-.9.8-1.4.7-.6,0-.7-.9-.7-.9l-.7-.5s0,1.3-.2,1.8c-.1.5.8,2.2,1.1,2.1.3,0,.9-.8,1.3-.7.3,0,1.5.9,1.4,1.3s-.8.9-.9,1.3c0,.4-.2,1.1-.2,1.1,0,0-1.4,0-1.6,0-.2,0-.8-.9-1.3-.9-.4,0-2,.5-2,.5,0,0-1.6-3.6-1.8-4.7-.2-1.1-.3-1.5-.5-1.8-.2-.3-1.1-1.7-1.6-2.7-.5-1-1.4-2.8-2.1-3.6-.7-.8-.8-1.2-1.4-2.1-.7-.9-1.6-1.8-1.6-1.8h-.5s.2-.4-.2-.9c-.4-.5-1.4-.9-1.4-1.4,0-.6.2-.7-.4-1.3-.6-.5-1.1-1.8-1.4-2.1-.3-.4-1.7-1.3-1.8-1.8,0-.5-1.4-1.3-1.4-1.3,0,0-1.3-1-1.4-1.3-.1-.3-.8-1.3-1.3-1.6-.5-.3-1.6-.7-1.6-.7,0,0-.9-.2-1.4-.5-.5-.3-2.3-1-3-1.4-.8-.5-1.8-.5-1.8-.5,0,0-.7-.1-1.1-.4-.4-.2-2.5-.8-5.5-1.1-3.1-.3-4-.1-5.2,0-1.2.1-1.2.9-1.6.9-.4,0-3.9,0-4.5,0-.6,0-5.9,2.2-7.2,2.7-1.3.5-4.8,2.9-5.9,3.4-1.1.5-2.2,1.5-2.5,1.4-.3,0-1.1,1.4-1.4,1.4-.3,0-3.6,1.8-5.9,4.3-2.3,2.5-2.5,3-3,3.6-.6.5-.7,0-1.3.5-.5.6-3.3,6.1-3.9,7.2-.6,1.1-2,4.5-2.5,6.6-.5,2.1-1.9,6.7-2.1,8.6-.2,1.9-.2,8.9,0,10.6.2,1.7,1.5,3.4,1.6,3.6.1.2.4,1,.7,1.3.3.3.7.4.7.9,0,.5.8,1.3,1.1,1.6.3.3,1.7,1.6,2,2,.3.4.4,1.4.7,1.4.3,0,1.2,0,1.3.4,0,.4,1.9,2,2.5,2.3.6.4,1.2.8,1.6.7.4,0,1.3.2,1.3.2,0,0,.2.5,1.1.5.9,0,2.3-1.3,2.3-1.3,0,0,.5-1.1.9-.9.4.2.8.8,1.6.9.8,0,1.5-.2,1.8-.2.3,0,.4.7.4.7,0,0,.6,0,1.1,0,.4,0,.2.6.5.7.3.1.8.2.9.5,0,.3-.4,1.2-.2,1.8.2.6.5,1,1.1,1.8.5.8.4,1.8.7,2.1.3.3,2.1,2.8,2.7,3.6.6.8,3.8,4.5,4.5,4.7.6.2,1,.2,1.6.7.6.5,1.5,1.4,2,1.6.4.2,1.6.3,2.1.4.5,0,2.1-.2,2.1-.2,0,0,.9-1.7,1.1-1.8.1,0,1.4-.1,1.8,0,.4.1,0,.5,0,.5,0,0,1,0,1.6,0,.6,0,1,.3,1.3.5.2.3.7.7,1.1.7.4,0,2.5.2,3.2.2.7,0,1.1-.4,1.1-.4,0,0,.6-.3.9-.4.3,0,1.3.2,1.3.2v.4s2.9.3,3.2,0c.4-.3,1.5-1.1,2-1.6.5-.6.8-.9,1.3-.9.5,0,2.6.2,3.2-.2.6-.3,1.4-.7,1.8-1.1.4-.4,1.6-2.1,1.6-2.1,0,0-2.8,6.3-8.4,9.3-5.7,3-7.2,3.6-7.7,3.9-.5.3-10.2,3.1-12.5,3.2-2.3.1-6.7,0-7.9,0-1.2,0-3.7-.1-5.2,0-1.5.1-2,.6-2.1.9-1.4,0-2.4-.4-2.7-.5-.3-.1-1.5,0-2-.2-.5-.1-.9,0-2.3-.5-1.5-.6-2.6-.8-3.6-.9-1,0-2.4,0-3.6-.5-1.2-.4-3.6-1.2-5.2-1.8-1.6-.6-5.1-1.9-7.5-3-2.4-1.1-4.7-1.8-5.4-2.3-.7-.5-1.6-1.6-1.6-1.6,0,0-1.1-.5-1.6-.7-.5-.2-1.4-.4-1.4-.4,0,0-.3-.4-.5-.7-.2-.4-.6-.9-1.1-1.1-.5-.2-1.6-.7-2.3-1.3-.7-.5-1.4-.8-2.1-1.6-.7-.8-1.8-1.4-2.9-1.8-1.1-.4-2.2-.4-2.3-.7-.1-.3-.7-.7-.9-1.1-.2-.3-1.6-2.3-2.3-2.9-.7-.5-2.9-2.2-4.5-3.9-1.5-1.8-5.9-7.5-5.9-7.5l-.4-1.3s-2.8-4.5-3.9-7c-1.2-2.5-1.6-3.4-1.8-4.1-.2-.7-1.4-4.3-2.1-5.9-.7-1.6-1.6-3.9-1.6-5.5,0-1.6,0-4.7-.4-5.4-.3-.7-.7-2.5-.5-5.9.1-3.4.7-5.4.7-5.4Zm137.1,22.9c.1-.6,1.1-1.1,1.1-1.1.5.6.3,2.2.4,2.7,0,.5-.5,1.4-.5,1.4l-.4-.5s0-.7-.4-1.1c-.3-.4-.3-.8-.2-1.4Zm-5.9.7c0-.2.5-1.4.5-2.1,0-.7-.1-.8-.2-1.4,0-.6.4-1.6.4-1.6.8.4,1.4,1.3,1.4,1.8,0,.5,0,1.3,0,1.8,0,.5-.3,1.8-.5,2.3-.2.5-.9,1.3-1.3,1.1s-.4-1.6-.4-1.8Zm-69.4,62.8c1.3,0,2.7-.2,2.7-.2,0,0,.9.6,2.1.5,1.3,0,2.2-.6,3.2-.5,1,0,1.7.6,2.9.5,1.2,0,2.5-.7,3-.7.5,0,1.3,0,1.3,0,0,0-.4,1.8-.7,2.1-.4.3-1.4.5-2.5.4-1.1-.1-2.7-.1-4.3-.2-1.5,0-4.4,0-6.4-.2-2,0-4-.6-5.4-.7-1.4,0-1.7,0-2.7-1.1,0,0,5.5,0,6.8,0Zm-7.9,19.2c.7.3,1.5,1.2,2.1,2,.6.7,1.1.7,1.6.7.5,0,3.6-1.1,3.6-1.1,0,0,0-1.5.4-1.6.3-.1,1.5-.4,2.7-.4,1.2,0,1.4.4,1.8.5.3.2,1.1.7,1.1.7,0,0,.6-.6.9-.9.3-.3,3.3-.9,4.8-1.1,1.5-.2,2.2,0,3.4.2,1.2.2,1.8.2,1.8.2,0,0,.1-.1.4-.7.2-.6,1-.4,1.6-.4.6,0,2-.2,4.3-.4,2.2-.1,2-.4,2.7-.7.7-.3,2-.4,2-.4,0,0,0,.2-.7.9-.6.7-2.3.7-3.2.9-.9.2-2.9.3-4.8.5-2,.3-2,2-2,2,0,0-1-.7-2-.5-1,.1-.9,1.1-.9,1.1h-1.4s.6,1.4-.9,2.1c-.7.4-1.6.2-1.6.2,0,0-1.5.5-3.4.5-1.9,0-2.5,0-2.5,0,0,0-.9.2-2.3.4-1.5.2-2.5-.4-2.5-.4,0,0-2,.3-2.9.4s-3.2-.1-4.5-.4c-1.2-.3-2-.5-2.9-1.1-.9-.6-1.2-1.7-1.3-2,0-.2-1.1-.4-1.1-.4l1.1-.2v-.7s.2-.5,2.1-.7c1.1-.1,1.8.2,2.5.5Zm31.9,1.3s-.8.8-1.3.7c-.5,0-1.3,0-1.8,0-.5,0-.9.4-.9.4,0,0-1.2.2-1.4.2-.2,0-.7.2-.7.2,0,0,.2-.6,1.1-.7.8-.2,1.3,0,1.6-.2.4-.2.9-.5,1.4-.5.6,0,1.2,0,2,0Zm-36.7-21.7c1.2.4,1.8,1.1,1.8,1.1,0,0-1,0-1.8-.2-.8-.2-1.3-.4-2-1.3,0,0,.8,0,2,.4Zm-36,12.3s1.5-.2,3.2.4c1.7.6,7.6,3,11.3,4.3,2.5.9,2.9.7,2.9.7,0,0,2.4.9,3.8,1.3,1.4.4,1.6-.2,1.6-.2,0,0,1.1.8,2.3,1.1,1.2.3,1.4-.5,1.4-.5,0,0,2.7,1.6,4.1,2.1-2.5.1-4.1,0-4.5,0s-1.5.6-2,.5c-.5,0-1.1-.4-1.1-1.1,0-.6.2-1.2-.4-1.3-.5,0-1.1.7-1.8.7-.6,0-1.1,0-1.8-.5-.7-.5-1.8-.6-2.3-.5-.5,0-1,.4-2.7,0-1.7-.4-4.2-1.2-6.3-2.1-2.1-1-3.4-1.2-4.8-2-1.4-.8-2.3-1.6-2.7-1.6-.3,0-.9-.2-.9-.2,0,0,0-.7.5-1.1Zm.5,7.2c2.4.9,9.6,3.2,12.9,4.1,3.3.9,5.7,1.4,5.7,1.4l-.4-.7s3.7,1.7,7,2.3c3.3.7,7.7.7,8.8.7,1.1,0,3.9.2,4.7.4.8.1,1.7,0,2.3,0,.6,0,2.1.6,3.8.7,3.2.1,2.9-.6,4.1-.5,1.4.1,3.3-.2,4.5-.4,1.2-.1,3-.2,3-.2,0,0,1.2-.1,1.8-.2.6,0,1.2.4,3.2.4,5.6-.7,13.3-3.2,14-3.6.7-.4,1,.3,2.1,0,1.1-.3,3.1-1.9,3.4-1.8.3,0,1.8.5,3.9-.2,2.1-.7,3.2-1.6,3.2-1.6,0,0,1.3-.2,2-.5.7-.3,2.4-1.6,2.9-2.1.5-.6,1.9-.8,2.5-.7.6,0,2-.4,2-.4,0,0,.2-.4.5-.7.4-.3,4.4-3.4,5.2-4.1.8-.7,1.4-1.2,2.5-1.3-.5,1.8-1.4,1.6-1.4,1.6,0,0-.3.7-1.1,1.4-.8.7-5.1,4.6-9.5,6.8-4.4,2.2-7.4,3.2-7.9,3.2-.5,0-1.9.6-2.5.9-.6.3-3.3,1.8-3.9,2-.6.2-1.4.2-1.4.2,0,0-.8.5-1.1.5-.3,0-1.5,0-2.1.2-.7.1-1.3.7-1.6.7-.3,0-1.3.2-1.3.2l.5.4-1.4.2h-.7l.5.4s-.3.6-1.4.5c-1.1,0-2.2.4-4.3.7-2,.3-4.3.4-4.8.4-.5,0-1.1-.2-1.1-.2,0,0-.4.3-1.8.5-1.4.2-3.6.4-5.2.4-1.6,0-2.9-.4-2.9-.4,0,0-1.3,0-1.6.2-.3.1-1.3.2-3.9.2-2.7,0-3.7-.4-4.1-.4-.4,0-.8,0-1.4,0-.7,0-1.5.5-1.8.4-.3-.1-1.3-.6-1.4-.7-.2-.1-3.7-.7-4.7-.7-1,0-2.1-.2-2.7-.4-.6-.2-1.4-.8-2-.9-.6,0-1.5.4-1.8.4-.3,0-.4-.5-.4-.5,0,0-2.5.2-3.2,0-.8-.2-2.4-.9-3.2-1.3-.8-.4-3.8-.8-4.7-.7-.8,0-1.5,0-2.3-.4-.9-.3-8.7-3.1-10.7-3.9-2.1-.8-5.4-2.3-6.4-3.2-1-1-3-1.3-3.8-1.6-.7-.3-1.3-1-1.8-1.6-.5-.7-1.3-.4-2-2,0,0,.8-.1,2,.4,1.1.5,10.3,4.3,12.7,5.2Zm-13.8-13.6c2,.9,5.2,2.1,5.2,2.1l-.2.5s-.5.6-.7.7c-.9-.2-1.6,0-3.2-1.1-1.6-1-2.8-1.6-4.1-3.9,0,0,1.1.7,3,1.6Z"/>
      <g>
        <path class="cls-1" d="m328.7,22.1s.5-.7,1.4-.6c1,0,.8.9,1.5,1.5.7.6,1.3-.1,1.3-.1,0,0,1.8,0,1.5.6-.3.6.7.6.7.6,0,0,.8.6.9,1.3.1.7.7.4,1.4.5.7,0,1.7.5,2.1.9.4.4,1.1,2,1.9,2.1.8,0,.8.3.3.6-.6.3-.3.6-.3.6,0,0,.6.6.8,1,.3.4,1.7.9,1.7.9l-.7.4s.5,1,.9.9c.4-.1.8.6,1.4.8.6.2.7,1.2-.2,1.1-.8,0-.4.4-.4.4,0,0,.5.9,0,1-.4.1.5,1.3.9,1.3.4,0,1-.1.8.9-.2,1,1.1.5,1.8.4.7-.1,1.4.3,1.8.6.4.3,1.8.8,2.7.8.9,0,1.7.8,2.1.8.4,0,.6-.5.6.3,0,.8-.6.5-.6,1.1,0,.6.7,1.3.7,1.3,0,0,1.1,0,1.6.2.4.2,1.6,1.9,2,1.9.4,0,1.9.9,2.4.9.4,0,1.5,1.9,1.5,1.9,0,0,.8.2,1,1,0,.8,1,.3.8,1.3-.2,1-.3.7-.3.7,0,0-1-.8-1.3.7-.3,1.4.9,1.4.9,1.4,0,0-.5,1,.2,1.6.7.6,2.3,1.7,2.3,1.7,0,0-.7-.2-1,.5-.3.7-.2,1.4-.2,1.4,0,0-.3.4-.2,1.3.1.9,1.8.2,1.8.2l-.2,1.5-.7.8-.6,1-1.1-.2-1.9.8s-1.7,0-2.6.5c-.9.4-1.7.4-2.6.7-.9.4-1.3-.2-2,0-.7.1-.5,1.2-.5,1.2,0,0-.7,0-1.3,0-.6.1-2.9,1.4-3.5,1.7-.6.3-2.6.2-3.3.4-.7.3-2.4.7-2.9,1-.4.3-.7.7-.6,1.7,0,1-.3,1-.3,1,0,0-.6.1-.5.8.1.7.7.7.7.7l-.9.5s-.6,1.1-.2,1.4c.4.3.1,1,.1,1,0,0-.5.7-.2,1.4.3.7-.2,1.3-.7,2.4-.5,1.1,1,1,1,1,0,0,2.4.7,3.2.8.8.2,1.1-.7,1.1-.7,0,0,1.2-.4,1.9-.5.7-.1,1.3-.6,2.1-.2.8.5,1.3-.1,1.3-.1,0,0,1.5.9,2.3.8.7-.1.2.7.2.7,0,0-.6.3-1.3.5-.7.3-.3,1-.3,1l1,.2s-1.1.2-1.2,1.1c0,.9-.6,1-.6,1,0,0,.5.9,1.1.9.6,0,.4.4.4.9,0,.4.8,1.4,1.6,2.3.8.9,1.6,1.8,2.5,1.9.8.2.8,1,.8,1.4,0,.4,0,1.7.3,2.1.4.4.4,1.3.4,1.3l.3.7s-.3.1-.6,1.1c-.3,1,.2,1.6.8,2,.5.4.8.9.8.9,0,0-.7.4-1.3.4-.6,0-.5.5-.6,1.2-.2.7-.9,1.7-1.4,2.1-.4.4,0,1.1-1.4.6-1.4-.5-1.1.4-1.2.8,0,.4-.3.5-.6,1-.3.4.4.6.4.6,0,0,.3-.1-.4.4-.7.5-1.5.9-1.5.9,0,0-1.7,0-2.4.2-.7.2-2,.3-2.4,1-.5.7-1.7,1.1-2.6,1.2-.9,0-1,1.1-1,1.1l-.7-.7-1.3.2-.7.5s-1.4.6-1.7,1.1c-.3.5-1,.2-1.3.9-.3.7-1.9,1.2-2.2,1.6-.3.4-1.4,0-2.1.5-.7.5-.9.3-1.9.5-1,.2-1.1,1.5-1.1,1.5h-1.3c0,0-1.2-.4-2,.1-.7.5-.5,1.8-.5,1.8,0,0-1.4.5-2.4.5-1,0-1.6.6-2,.9-.4.3-1.9.8-2.2,1.6-.3.8-.6.7-.6.7,0,0-1.7.4-2.3.3-.6,0-1.7-.8-1.7-.4,0,.4-1.8,0-2.4,0-.6-.2-1.3.4-1.4-.5-.1-.9-.8-.3-1,0-.1.4-.6.8-.6.8,0,0-1.6-.3-2.1-1.2-.5-.9-.7-.7-1.5-.5-.9.2-2.4-.8-2.8-1.4-.4-.6-1.2-.9-1.2-.9,0,0-.7,0-1.7-.5-1-.5-.7-.3-.6-1.3,0-1-.4-1-1.1-1.5-.7-.5-.8-.6-.8-1.2,0-.6-.8-1-1.7-1.1-.8,0-.8-.7-.5-1.3.3-.6,0-1,0-1,0,0-.7-1.2-1.1-1.5-.4-.3-.4-1.1-.4-1.7,0-.6.2-1-.4-1.1-.6-.2-.5-.7-.5-.7,0,0,.9-.8.3-1.3-.5-.4-.2-1.3-.4-1.7-.1-.4-.3-2-.3-2,0,0-.4-.6,0-.9.4-.3.6-.4.3-1-.3-.6,0-.8,0-.8,0,0,1.4.2,1.7-.5.3-.7,1-.2,1-.2,0,0,1-.4,1.2-.8.2-.4,1-.4,1.3-.5.3-.1.9-1,1.5-1.4.6-.4,1.6-1.3,2.6-1.6,1-.3,1.7,0,2.1-.6.4-.5.9-.4,1.4-.8.6-.4,1.7-.8,1.7-.8,0,0,1.7,0,1.7-.9,0-.8.7-.1,1.1-.4.4-.3.3-.4,1.6-1.2,1.3-.8.5-.8-.1-.9-.6,0-.5-.7.3-.8.8,0,.5-.5.6-1,.1-.4-.5-.7-.5-.7,0,0-1.1-.3-1.4.4-.3.7-1,0-1.3.8-.3.8-.4.8-.4.8l-2,.2s-1.7,0-2.4,0c-.7.1-1.1-.3-2.4-.4q-1.3,0-2.3,0c-1,.1-1.8-.2-1.8-.2h-1.3c0,.1-1.4-1.2-1.9-1.3-.6,0-1.7-.5-2.1,0-.5.6-.8-.4-.8-.4l-1-.8s-1.1,0-2.1,0c-1,0-.7-1.2-1.8-1.9-1.1-.8-1.9-1.2-2.3-1.4-.4-.2-.4-.9-.4-.9,0,0,.5-1.4-.4-1-.8.4-.7-.7-.7-.7,0,0,0-1.3-.7-.9-.6.4-1.2-.6-1.2-.6,0,0-.9-1.7-1.5-1.8-.6,0-.4-1.4-.8-2-.4-.6.2-1.4-.9-1.5-1.1,0-.6-.2-.1-.9.5-.7-.3-.7-.8-1.2-.6-.4,0-1.1-.9-1.3-.8-.2-.5-.7,0-1.3.4-.5,1.7-1.5,1.7-1.5.7,0,.6-1.5.6-1.5h.7s.7-.6.2-.9c-.5-.3.4-.1.4-.1,0,0,1-.4.6-.5-.4-.2-.1-.9-.1-.9l1.2-.5s1.6-.8,1.7-1.5c.2-.7.6-.3,1.6-.9,1-.7.6-1,.6-1,0,0,.7-.4,1.2-.5.4-.1,1.2-.8,1.6-1.1.4-.3.7-.5,1.7-.6,1-.1,1.3-.4,1.4-.8.2-.4.6-.4,1.1-.4.6,0,1-.4,1-.4l.6-.7s1.1-.4,1.3-.9c.2-.6,1.2-.7,1.9-.6.7,0,1.3.2,1.3-.7,0-.8.6-.3,1-.5.4-.3,1.9-.8,2.9-.7,1,0,2.9-1.3,3.7-1.6.9-.2,3.4-1.4,3.9-1.8.4-.4,2.2-1.3,3-1.3.9,0,1.7,0,2-.5.3-.4,1.1,0,1.6-.6.5-.7,0-2,.1-3,.2-1,.6-.8.9-2.2.3-1.4.5-2.5.4-3.2-.1-.7-.2-2.4.5-2.7.7-.3.6-1.8.6-1.8,0,0,.5-1.5.7-2.5.2-1,.5-2.7,1.1-3.1.6-.4.2-1.4.4-1.8.1-.4.6-1.8.7-2.5,0-.7.3-.4.7-.5.4-.1.9-.7,1.4-1.1.6-.4,1.2-.4,1.2-1.2,0-.8.6-.1.6-.1-.3.4.8.3.8.3Zm-37.4,117.8s.4,1,1,1c.6,0,1.2,1.2,1.8,1.2.6,0,1.4.9,1.4.9,0,0,0,.6.7.7.7.2,2.3,2.1,2.3,2.1,0,0,.2,1.3.8,1.3.6,0,1.2.9,1.8,1.6.5.7,2.3,2.8,3.2,3.4,1,.6,1.8,1.3,1.8,1.3,0,0,.1,1.4.8,1.6.7.2,2.1,1.5,2.6,1.7.6.2,1,0,1,.7,0,.7.3.9.9.9.7,0,.3.4,1,.3.7-.1.7.9.7.9,0,0,.8,1.5,3.1,3,2.3,1.5,1.3,1.9,3.1,3.4,1.8,1.5,1.8,1.6,3.6,2,1.8.3,1.1.3,2.2-.9,1-1.2,2.3-1.5,2.7-1.5.4,0,1.3-.7,1.3-.7,0,0,.5-.6.9-.4.4.2,1,.6,1.6-.6.6-1.2,2.7-1.3,2.7-1.3,0,0,2.2-.9,2.9-1.4.7-.5,2-1.2,3-1.4,1-.2,3.2-2.7,3.2-2.7,0,0,.5-.7,1.3-.5.8.2,1.4.8,2.1.4.7-.4.8-1.4.8-1.4,0,0,.9-.7,1.7-.7.8,0,2.5.7,3.2-1.1.6-1.8,1.4-2.8,1.4-2.8,0,0,.6-.4,1.6-.9,1-.5,1.5-2.4,1.5-2.4l.4-.3v-.8s.2-1.1.7-1.2c.4-.1-.1-.9-.1-.9l1.4-.4.9-.4-.5-.7s.7-.1,1.4,0c.7,0,1-.7,1-.7,0,0-1.4-.3-1.5-1.1-.1-.7,1.1-.4,1.1-.4l.2-.4-.5-.9s-.5-.9.5-.8c1,0,1.9-.4,1.9-.4,0,0,.2,1.1.9,1.2.7,0,1,.6,1.4.6.4,0,.4,1.3.4,1.3,0,0,.1.8.7.9.6,0,1.4.9.9,1.2-.4.3.7.7,1.4.8.7,0,.7.7,1.4.8.7,0,1.7.2,2.2.5.6.3,1.2,1.7,1.2,1.7,0,0,.4.1,2.9,1.1,2.5.9,5.3,1.2,5.9,1.2.5,0,2.3-.2,2.3-.2,0,0,.3-.8,1.3-.5,1,.3,1.2.8,2.6,0,1.3-.8,2,0,2.7-.9.7-.8,2.5-1.6,2.5-1.6,0,0,2,0,2.3-.6.3-.6,2-.9,2.3-2,.3-1.1,2.1-1.5,2.1-1.5l.5-1.1s.6-.5,1-.5c.4,0,1,0,1.3-.7.3-.7,1.6-.4,2-.6.4-.3,1.6-1.6,2.3-1.9.7-.3,1.5-1.1,1.5-1.1,0,0,1.3-.8,1.7-.8.4,0,1.1-.7,2.5,0,0,0,3.4-3.8,2.1-2.3l-1,.5s-.9.5-1.3.8c-.4.3-1.7,0-1.2-1.2.5-1.2.4-.4,1.4-.5,1-.1,2.4-.9.7,1.6-1.8,2.5-2.3,4.3-2.7,4.7-.4.4-.9,2.5-1.4,2.9-.4.4-1,1.1-1.1,1.6,0,.6-.6,1.5-.6,1.5,0,0-1.3.4-1.3,1.2,0,.8-.6,1.7-.6,1.7,0,0-.6.8-.8,1.4-.2.6-1.2,2.2-1.7,2.5-.4.3-.8,1.1-1.5,1.1-.7,0-1.8-.4-1.8-.4,0,0-2.1.3-2.6.7-.4.4-1.6,0-1.6,0,0,0,.4,1.4-.5,1.4-.9,0-2.9-.7-4.9-.2-2,.5-2.8.6-3.6.8-.7.2-2.1.3-2.7.3-.6,0-3.1.6-3.1.6,0,0-1.3-.5-2.1.5-.9,1-1.9,1.5-1.9,1.5,0,0-.3.8-.9,1-.6.1-1.2.8-1.2.8,0,0-.2.3-.3.8-.2.6-.3,1,0,1.7.4.7,1.8.8,1.8.8,0,0-.9,1.2,0,1.4.8.2,1.4,1.5,1.4,1.5,0,0,1.2.8,1.7.9.4.2,1,.9.4,1-.6.1-.9.7.4.7,1.3,0,1.7.6,1.7.6,0,0,.1.9.8.7.7-.1,1.2.9,1.2.9,0,0-.2,1,.7,1,.8,0,2,1.9,2,1.9l.8.2v.7c.1,0-.3.3-1,.4-.7.1-1.7.5-1.7.5,0,0,.7.2,1.3,0,.6-.1,1-.1,1-.1l.2,1.4s-.4.3-.2,1v1.3c0,0-.2,1.3-.2,1.3,0,0,.3.6-.2.6-.4,0-.8.3-.8.3l-.5,1.4-.8,1.2s-.8,1.4-1.3,1.5c-.6.1-1.3.5-1.3.5l-1-.2s0,.7-.4,1.7c-.3,1-1.3,1.5-1.3,1.5,0,0,.3.6,0,1.1-.3.6-.2,1.3-.8,1.4-.6.1-2.1.8-3.5,2-1.3,1.2-2,1.2-2.5,1.6-.4.4-1,.7-1.6.8-.5.1-.9.2-.9.2,0,0,.8.9.1,1-.7.1-1.4,0-1.4,0,0,0,2,.2.8.9-1.1.7-1.7,1.1-2.9,1-1.1,0-2,.5-2,.5,0,0-.5,1.7,0,2.4.5.7,0,1.7.8,1.4.7-.2,2.3-.5,2.3-.5,0,0,.7-.8,1.3-.7.5.2,2.3-.2,1.1.8-1.2.9-1.5,1.2-1.8,1.6-.3.4-.5,1.2-.5,1.2,0,0,.3.7-.3.7-.6,0-.1.3-.7.8-.6.5-1.7.6-1.7.6,0,0-.6-.3-.7.3-.2.6-1.2,1.2-1.2.5,0-.7-.8-1-.8-1l-1-.2-.6,1-1.4-.3s-2.5-.2-1.8-.8c.7-.5,1.4-.4,1.5-1.4,0-1,1.7-.2,1.7-.2,0,0-1-.3-.8-1,.2-.7,0-1.7,0-1.7,0,0-.2-1.1.5-1.3.7-.1,1.3-1.2,1.3-1.2l1.1-.4s1.6,1.5,1.2-1.8c0,0-.2-1.3.8-1.7,1-.4,1.3-.7,1.5-1.2.2-.6.6,0,1.2-1.1.6-1.1,1.2-.9.8-1.2-.4-.3-.1-.7-.1-.7,0,0-1.1-.6-.2-.7.8-.1,1.1-.5,1.1-.5,0,0,.6-.4.5-1.4-.1-1,.6-1.9,1.7-2.5,1-.5,1.9-1.5,1.9-1.5,0,0,.7-1,0-1-.7,0,.9-1.1,0-1.1-.9,0-.7-.9-.7-.9l-.5-.6s.7-1.1-.2-1c-1,.1-.7-1.1-.7-1.1l.3-.8s-.1-.7-.5-1c-.4-.3-1.1-1.2-1.1-1.6,0-.4-.4-.9-1-.5-.6.4-1.6.2-2.3.2-.7,0-2.4-.5-2.4-.5,0,0-.7-.7-.4-1.4.3-.7-.2-1.8-.2-1.8,0,0-.3-.1-.8,0-.6.1-.5-1.3-.5-1.3l-.4-.6s-.9-1.5-1.8-1.8c-.8-.3-3.1-2.7-3.7-2.8-.6-.2-1.3-.8-2.1-1.1-.8-.3-1.8-.9-1.8-.9,0,0-.6-1.6-1.2-1.2-.6.4-3.2-.3-3.2-.3l-1.1-.3s-.2-.7-1-.3c-.7.4-2.7,0-2.7,0,0,0-1.9-.8-2.5-.8-.6,0-1.4-.3-3.3.9-1.9,1.2-2.6,1.2-3.2,1.7-.6.5-1.6,1.1-1.6,1.1,0,0-.7.8-1.4.8-.7,0-.5,1.1-1.2,1.2-.7,0-1,.9-1,.9,0,0,1,.7,1.5.8.6,0,1.6,1.5.9,1.9,0,0,.6.2,1.6,0,1-.2,1.8.2,1.8.9,0,.7.9,1.6,2.2,1.6,1.3,0,2.4.2,3,.4.5.2,1.2,1.3,1.2,1.3,0,0,.8.7,1.8.8,1,0,1.8,1.1,1.9,2.1,0,1,1.2,1.3,2.1,1.2.9-.1,2.3-.5,2.9-.3.6.1.8,1,1.9.9,1.1,0,2.8-.2,2.8-.2,0,0,2.6-.3.4,1-2.2,1.3-2.7.7-3.3,1.4-.6.7-1,.5-1.6,1.3-.6.8-1.5,1.3-1.9,1.5-.4.1-3.1,1-3.1,1,0,0-.9.3-1,.8-.2.6-.2,2.1-.8,2.1-.6,0-1-.5-1.4,0-.4.6-1.6.2-1.6.2,0,0-.5-1.1-2.2-.7-1.7.5-2.3.3-2.7.3-.4,0-1.3.5-1.6.9-.3.4-1.2,1.1-1.2,1.1,0,0-1,.5-1.7.4-.7-.2-1.4-.9-1.1-1.3.3-.4.2-.8.2-.8,0,0-.6.1-.2-.6.3-.7-.7-.9-.7-.9,0,0-1-.9-1.4-1.6-.4-.7-2.6-3.4-3.1-3.5-.6-.2-.8-1.9-1.3-1.7-.6.1-1.9-1.5-1.9-1.5,0,0,.3-.8-.4-.9-.7,0-.9-.9-.4-.9.6,0-.3-.9-.3-.9,0,0-2-.5-2.5,0-.6.4-1.6,1.2-1.6,1.2l-.6,1.2s-.2,1-1.3.4c-1.1-.6-1.5-1.2-1.9-1.2-.4,0-1-.6-1-.6,0,0-.8.1-.8-.6,0-.7-.7-.6-1.5-.5-.8.1-1.9-.9-1.9-.9l-1.7-.2s-.7.5-1.2.5c-.4,0-1.7-.6-1.7-.6,0,0-2-.6-3-.1,0,0-1-.6-1,.1,0,.7.2,1.1-.6,1.1-.8,0-1-.2-1-.2,0,0-.9.8-.2,1.1.7.3.2,1.3.8,1.7.6.5,0,1.3.4,1.6.4.3.4,1,.9,1.2.5.2.9,1.3.1,1-.8-.3-.5,1.1-.5,1.1l.8.5s-.3.6.3,1c.5.4-.9,1.2,0,1.7,1,.5.8,1.1.8,1.1,0,0-.8-.3-.2.7.7,1-.4,1.8.8,2,1.1.2,1.5.9,1.5.9,0,0,0,1.1,1.4,1.2,1.4,0,1.5.6,1.5.6,0,0,.1.9.7.7.6-.1,1.6-.2,1.4.6-.2.8,0,1.7.6,1.4.6-.3,1.4.2,1.4.2,0,0,.5,1,1.4.9.8-.1,1.4,0,1.4.5,0,.4.7.7.7.7,0,0,1.5,1.2.7,1.4-.9.3-1-.2-1.4.4-.5.6-1.6.9-1.6.9l-.9.4s.1.7,1,.3c.9-.4,1.1.5.4.4-.7,0-1.4.5-1.4.5l-1.2.8s-.3,1-.8.8c-.4-.2-.8-1.5-1.1-.6-.3.8-1.4.7-1.4.7,0,0,.4.4-.6.4-1,0-1,1.1-1,1.1,0,0-1-.2-1.4.2-.4.4-1.3.9-1.3.9,0,0-.7,0-1.1,0-.4.1-1.3.9-1.3,1.4,0,.4-1.4-.2-2.1.3-.7.5-1.6.5-1.6.5,0,0-1,0-1.1.4-.2.4-.6,1-1,1.1-.4.1-2.2-.8-2.7-.3-.4.5-.9,1.5-.9,1.5l-.9.3s.3-.6-.5-.6c-.8,0-2.8.5-3.4-.1-.5-.6-1-.2-1.7.3-.7.5-1,1-1,1,0,0-1.4.5-.9.7.6.2-1,1.2-.2,1.1.9-.1.5,1,.5,1v1.6c0,0,.4,1.3,1,1,.6-.3,1,1.2,1,1.2,0,0-.3.8.5.9.9,0,.8,1,.1,1-.7,0-.9.7-.2.8.7.2.7,1.2.7,1.2l.4,1.4h.6c0-.1,1.4,1.6,2.6,2,1.3.3,2.1.6,2.1.6l1.5,1.3s.3.9.9,0c.6-.8,1.5.3,2.8,1.4,1.2,1,1.8,1.9,2.2,1.9.4,0,.5.9.5.9,0,0-.4.5.1.6.6,0,1.1.7,1.1.7,0,0,.2,1.1.8,1,.6-.1,2.1.4,2.1.4,0,0,1.5.5,2,.4.4-.1,1.1.9,2.5.7,1.4-.2,1.9-.9,2.9-.7,1,.2,2.1.2,2.8.2.7,0,2.7-.3,3.3-.7.6-.4,1.9-.2,2.5-1.2.6-1,2.2-1.3,2.8-1.6.6-.3,1.3-.4,1.3-1.1,0-.7,1.3-1.1,1.3-1.1l1.3-.5s.6-.8,1.6-.4c1,.5,1.7-.8.9-.8-.9,0,.6-1,1-.9.4,0,1.7-.5,2.3-1,.6-.5,1.7-1.1,2.2-1.2.4-.1,1.9-2,2.3-2.3.4-.3,2-.2,2-.8,0-.6,1.8-1.5,2.2-1.9.4-.4,1.6-.9,1.6-.9,0,0,2.1,0,2.3-.9.2-1,1.2-1.4,1.2-1.4,0,0,.7.3.9-.2.2-.6.8-1.1,1.5-1.1.7,0,1.6,0,1.6,0l-.6-.3s-1.9.8-1.3-.3c.6-1.1-.4-1.4.4-2.4.8-1,2.2-2,2.2-2,0,0,.7.6,1.2-.7.5-1.3,1-1,1-1,0,0,.6.4.7-.3.2-.7,1,.2,1.4,0,.4-.1,1.7.8,1.1,1.5l-.6.7s.5.2,1.4.2c.8,0,.8-.2,1.3.6q.4.9-.2.8c-.6,0,0,.1,1,.5,1,.3.2,1,.2,1,0,0,.8.6,1.9.8,1.1.2,3.1,1,4.9.9,1.8,0,2.8-.2,5.6,0,2.8.3,4.1-.3,5-.2.9,0,3.8.1,3.8.1,0,0,1.7.5,2.6-.7.9-1.2.2-1.5.2-1.5,0,0,.7-.7,1.4-.7.7,0,1.4,0,2.2-.7.7-.7,1.6-.8,2-.8.4,0,2-.2,2.7-.9.7-.7,1.3-.8,1.3-1.5,0-.7.6-1.1,1.5-1.1.9,0,1.6,0,2.3-.2.7-.3,1.4,1,2.3.2.9-.8.8-1.4,1.3-1.6.6-.3.6-1.7.6-1.7,0,0,1.1-.5,1.5-1.2.3-.7,1.6-1.6,1.6-1.6,0,0,.7-.5,1.3-.9.6-.4,2-.9,2.6-1.6.6-.7,1.3-.7,1.3-.7l1.1.2,1.2-.7s-.1-.4,1-.7c1.1-.2,1.8.3,1.8.3,0,0,1,.3,1.4.5.4.2,0,.8,1.1.9,1.1,0,2.4.9,1.6,1.3-.7.4.3.7.7.7.4,0,.7.9,1.5.8.9-.1,1.1.6,1.1.6,0,0-.3,1,.4,1,.7,0,1.2.7,1.2.7,0,0,1.1.3.8.9-.3.6-.2.7.7,1,.8.3,1.2,1.1,1.2,1.1,0,0-.3,1.1.2,1,.6-.1,1.3.3,1.3.3,0,0,1,.7,1.4.6.4-.1,1.4,1.2,1.7.8.3-.4,2.3.4,2.3.4l.7.2s-.4.7.5.7c1,0,2.5.9,2.5.9,0,0-.2.7.4.4.6-.3.3.7,1,.7.7,0,1.9.8,1.9.8l1.3.3s1,.2,1,.6c0,.4,0,.7.5.7.6,0,1.4,1,1.4,1,0,0,.7.7,1.3.5.6-.3,1.4.9,1.4.9,0,0,.1.4.6.3.4-.1.7,1.3,1.4,1.2.7-.1,2.5.4,2.5.4,0,0,3.2.6,3.9.4.7-.1,1.8.4,1.8.4l.5.4s1.1.6,1.7.6c.6,0,1.4.3,2.4.9,1,.6,1.8-.2,1.8-.2,0,0,1.6,0,2,.2.4.2,3,.4,3,.4,0,0,.5.9,1.5,1.1,1,.2,1.7.6,2,.2.3-.4.9-.2.9.2,0,.4.2.7.8.5.6-.3,1.4.2,1.4.2,0,0-.6,1,.7.9,1.3,0,3,.1,3,.1,0,0,1.5.5,1.9-.2.3-.7,1.3-1.1.8-1.7-.5-.6-1.6-2.2,0-2.4,0,0,.2-1-.5-.6-.7.4-.5-1-.5-1,0,0-.2-1.1.3-1.4.6-.3.6-1.4.6-1.4l1.3-.7.4.4s.7-1.2-.4-1.4c-1.1-.2-1.4-.8-1.4-1.5,0-.7-.5-1.9-.5-1.9,0,0-.6-2.2-2.7-2.1,0,0-1.1-.3-1.6,0-.5.3-.4-1.3-1.1-1-.7.3-1.8,0-1.8,0,0,0-.3-.7-.7-.5-.4.3-1.2-.8-1.7-.8-.4,0-2.5-.9-2.5-.9,0,0-1.4.2-1.6-1.2,0,0,.2-1.3-.8-1-1,.2-1.4-.3-1-.6.4-.3,1.3.2.9,1,0,0,.3,2.3.6,1.7.3-.5.4-2.5.8-1.8.4.7,1.1.6,1.1.6,0,0,1.2.2,1.1.6,0,.4.7-.1.7-.1,0,0,.3-.7-.2-.7-.6,0-1.5-.9-2.1-1.1-.6-.2-1.4-.3-1.4-.3,0,0,0-.7-.8-.7-.8,0-2,0-2,0,0,0-1.6-1.3-1.8-.9-.2.4-1.6-.6-1.6-.6,0,0-.6-1.2-1.4-1.2-.7,0-.7.4-.6-1.2,0-1.6,1.3-.9,1.3-.9,0,0,.7.9,1.8.6,1.1-.2,1.3-.5,2.1-.5.8,0,1.3.5,1.3.5,0,0,.6-.7-.2-.7-.9,0-2-.4-2-.4,0,0-.4-.7-.8-.5-.4.3-1.3.7-1.3-.3,0-1-.8-1-.8-1,0,0-.8-1-1.7-.9-.9.1-1.4-1.2-1.8-1.2-.4,0-1.1-1.7-2.5-1.8-1.4,0-2.9-1.5-3.3-1.8-.4-.3-2.9-2.1-2.9-2.1,0,0-1.5-.5-1.5-1.2,0-.7-1.4-1.3-1.9-1.2-.6.1-1.3-.3-1.3-.3l-1.1-1s-.8-1.5-1.4-1.3c-.6.1-1.9-1.1-1.9-1.1,0,0-1.5-1.6-1.9-1.5-.4.1-2.4-2.4-2.4-2.4,0,0-.8-.2-1.2-1-.4-.9-2.6-2.9-2.6-2.9l-1.1-.9s.5-.8-.4-.7c-.9.1-1.2-.9-1.2-.9l-.4-.7s-.2-.1.6-.4c.7-.3-.4-.3-.4-.3,0,0-.8-.5-.8-1.2,0-.7.4-.7-.1-1-.6-.3-.8-.6-.1-.7.7-.1,1-1.2,1-1.2,0,0,.8.6.9-.8,0-1.4,1-.4,1.2-1.1.2-.7,1.1-2.1,1.1-2.1l1.3.2v-.7c-.1,0,.6-.8.6-.8,0,0,.7-.2.2-.7-.6-.4.5-1,.5-1,0,0-.3-.3-.7-.4-.4-.2-.7-1.2,0-1.7.6-.5,1.6-.9,1.6-.9l-1.5-.3s.3-.3.3-.8c0-.6.2-1,1-.9.9,0,.8-1.2.8-1.2,0,0-.1-.9.7-1,.9,0,1.2-.4,1.2-.9,0-.6,1-.2,1-.2,0,0-.8-.5-.5-.9.3-.4,0-1.1,0-1.1,0,0-.4-.9.5-1.1.9-.2,1.1-.5,1.1-.5,0,0-.6-.2-.1-.7.4-.5.6-1.1.6-1.1,0,0,.6-.4-.1-.4-.7,0-.2-1.3-.2-1.3l.6-1.7s1.9-1.1,2.3-1c.4,0,.8-1.1.8-1.1l.9-.9s-.2-1,.5-1.1c.7-.1,1.2-.9,1.2-.9,0,0,.2-1.1.9-1.2.7-.1.9-1.5.9-1.5,0,0,0-1.8.4-2.4.3-.6.2-1.3.2-1.3,0,0-.5-.9.9-.8,1.4,0,2.2.7,2.8.1.6-.6,1.9-1.1,1.9-1.1l.3-.6s.2-.3.7-.2c.6,0,1.1-.4.6-.4-.6,0-.8-1.4-.4-1.6.4-.1.9-1.5,1.8-1.2.8.3,1-.2,1-.2,0,0-.2-.4-.8-.5-.6,0-.1-.4-.8-.5-.7,0-1-.7-.4-.9.6-.1-.1-1.1-.1-1.1,0,0,0-1.4-.5-1.4-.4,0,0-1.4,0-1.4,0,0-.2,1,1.2-.5,0,0,1.2-.4,1.8-.3,0,0-.5-1-1.2-1.1-.7-.2-1.1-.8-1.1-.8,0,0,.4-.7-.3-.6-.7.1-.8-.7,0-1.4.7-.7,1.5-1.4,1.5-1.4l-.7-.4c-.7-.4-1.7-.5-1.1-1v-.7s-2.1-2.4-2.1-2.4l-1.1-.5-1.9-2.5s0-1.8-1.6-1.9c0,0-.4-1.4-1.1-1.2-.7.2-1.9-1.2-1.9-1.2l-1.5-1.3s-1.4-.9-2.1-.5c-.7.4-2.2.8-2.2.8h-2.1c0,0-1.1,0-1.1,0,0,0-1.1.2-1.7-.2-.5-.4-.8.1-2.5-.3-1.7-.3-2.8-.1-2.8-.1l-1.3-.2s-1.5-.5-3.2-.3c-1.7.2-2.7.2-4.1.5-1.4.4-2.3.6-2.3.6l-1.2.2s-1.3.4-1.3-.3c0-.7.2-2.5.5-3v-.4s-.7-.6-1.4-.6c-.7,0-1.4-.3-1.9.5-.5.8-1.3,1.5-1.3.7,0-.8.5-1.1,1.2-1.1.7,0,1.2-1.4,1.2-1.4,0,0-.7-.2-1.1,0-.4.3-.4,0-.4-.9,0-.9.7-.4.7-1.1,0-.7,1.6,0,1.6-1.1,0-1,0-1.8,0-2.4.2-.5.9-.8.9-.8,0,0,0-1.3.5-1.7.5-.4,1-.1,1-.1,0,0-.7-.5-.6-1,0-.6,0-1.3.9-1.5.9-.2.2-1.1.2-1.1l.5-1s.3-.8.4-1.7c0-.8-.2-1.3-.2-1.3,0,0,0-1.1.4-1.4.4-.3.6-1,1.3-.9.7,0,1.9-1.2,1.9-1.2,0,0,.6-.4.9-.8.3-.4,2.4-.6,2.4-.6,0,0,.9-.9,1.4-.9.6,0,1.8.2,2.1-.3.3-.6,8.3-2.5,8.3-2.5,0,0,3-1.3,4.6-1.1,1.5.2,3,0,3.4-.7.5-.7,1.5-2.2,1.5-2.2,0,0,0,1.1.7,1.2.7,0,1.6,0,1.6,0,0,0,0-.8.6-.8.6,0,1.5.8,1.5.8,0,0,.5-.8,1.3-.8.8,0,1.4.3,2-.3.6-.7,1.5-1.1,2.3-.9.8.2,2-.2,2-.2l1.3-.2,1,.2s.9-.8,1.6-.8c.7,0,1.9-.6,1.9-.6,0,0-.3-1-1.2-1-1,0-1.8,0-1.8,0,0,0-.2-1,0-1.4.2-.4-.2-1.3-1.4-1.3-1.1,0-2.6-.4-2.6-.4,0,0-.6-.4-1.1-.2-.6.3-1,.7-1,.7l-.9-1.3v-.9c-.1,0-.8-1.3-.3-2,.5-.7-.3-.9-.3-.9l-.4-.7s-.6.8-.3-.6c.3-1.4.9-.5,1.9-.8,1-.2,1.9-.6,1.9-.6,0,0,0-.6.4-.6.4,0-.8-1.2-.8-1.2l-.3-.7.2-1s-.7,0-1.8-1.2c-1.1-1.2-1.5-1.9.6-1.7l-1.1-1.3s-.4-.9-1.1-.6c-.7.3-1-.7-1-.7,0,0-1.9-1.1-2.9-1.4-1-.3-2.1-.7-2.4-.1-.3.6-1.6.6-1.6.6,0,0-.8.1-.8-.6,0-.7,1.1-.2,1.1-.2,0,0-.5-.7-1.7-.5,0,0-3.7-.1-5.1-.2-1.4,0-1,.5-1.6.6-.6.1-1.2-.9-1.2-.9,0,0-1.7.6-2.6.8-.9.1-2.5.2-3,.4-.4.3-1.9.9-1.6-.5.3-1.4.8-2,1-3.1.2-1.1.2-2.5.2-2.5,0,0-1.3-.8-.8-1,.4-.3.4.2.7-.5.3-.7.9-.8.9-.8,0,0,1.3-.8-.3-.9l-.5-1.3s-.9.4-.6,0c.3-.4.2-.8-.8-.9-1,0-1.5-.3-1.5-.3,0,0-.3-.7-.8-.8-.5,0-1.1-.5-.5-1,.6-.5.9-1.9.9-1.9h1.3c0,0,.6-.8,0-.8-.6,0,0-1.1,0-1.1v-.9c-.1,0,.9.3,0-.8-.8-1.2-1.8-.6-1.8-.6,0,0,.2-1.8-.8-1.9-1,0-1.4-.6-1.8-1.5-.4-.9-.8-1.4-.8-1.4l.3-.4s1-.5.2-.7q-.8-.2-1.7-.2c-.8,0-1.8-.9-1.8-.9l-1.4-1-.6-1.9s-.7-.3-1.1-.3c-.4,0-2.1-.2-2.2-.9-.1-.7-1.4-1-1.8-.9-.4.1-1.6.2-1.6.2l-1.7.5s-.2.9-1,.7c-.8-.2-2.3,0-2.3,0,0,0-.4.7-.2,2.1.2,1.4,0,2,0,2,0,0-.3.6-.8,1.1-.4.6-.7.8-.8,1.4,0,.6-.5,2-.5,2.7,0,.7-.6,1.1-.9,1.9-.3.8-.5,2.5-.7,3.1-.1.6-.6,1.4-.6,1.8,0,.4-1.6,1.5-.9,2.2.7.7,0,1.3,0,1.3,0,0-.6.5.1.7.7.2,0,1.6,0,1.6,0,0-.8.8-1.3.9-.6.1.5,1,.3,1.8-.2.8.5,2.7,0,3.1-.4.4-1,1.4-1,1.4l.2,2s-.6.8,0,1c.6.2-.7.7-.8,1.4,0,.7-.6.8-.8,1.8-.2,1-.8,1.4-.8,1.4l.7,1.4-.5,2.2s-.9.2-1.1-.6c-.3-.9,0,.8,0,.8,0,0,0,1-.9.9-.8,0-3.5,2-4.3,2.4-.9.4-2.7.2-3.6,1-.9.8-2.2,2.3-4.3,2.2,0,0-3.8,2.1-5.1,3-1.3.9-2.3.8-3.2,1.4-.9.7-2.5,2.2-2.5,2.2,0,0-2.3-.2-2,.6.2.8-1,1.5-1,1.5,0,0-2.4.5-3.2,1.3-.7.8-1.8,1.5-2.3,1.5-.6,0-1.1.4-1.2,1.1,0,.7-.9.8-.9.8,0,0-1.6.4-1.6.8,0,.4,0,2.3,0,2.3,0,0-.6,1.1-.2,2.7.4,1.6,0,1.6.2,2.1.3.6,1.4,1.2,1.4,1.2,0,0,1.2.9.5,1.9-.7,1-1.2,1.1-.4,1.8.8.7,1,.3,1.5,1.3.5,1,1.3,2.7.2,2-1.1-.7-.3.8-.3.8,0,0-.7.3.5,1.4,1.2,1.2.6,1.6,1.5,2.2.8.6.8,1.6,1.5,1.5.7-.1,1.8.6,1.8.6,0,0,2.1,1.2,2.5,1.4.4.2,1,.2,1.4-.4.5-.5-.4.4,1.1.3,1.6,0,2,1.9,2,1.9,0,0,.8.6,2.1,1.1,1.3.5,2.1.6,3.8.7,1.7,0,2.9.3,3.3-.4.3-.7,1.8-2.3,2.2-2.5.4-.1,1.4-.5,1.4-.5l.4-.7s1.3.5,1.5-1.1c.2-1.5,1.9-1.9,2.2-.9.2,1,.3,1.9.3,1.9,0,0-.9,1.8,0,1.8.8,0,.7,1,.7,1,0,0-.7,1,0,1.6.7.6.5,1.1,0,1.1-.6,0-.3,1.1-.3,1.1,0,0,.1,1,.8,1,.7,0,.4,1.6.4,1.6,0,0,0,1.8,0,2.3,0,.4-.2,1.7-.2,1.7,0,0,.6,1.6-.5,1.7-1.1.1-2,.9-2,.9,0,0-1.5-.9-2.2.8-.6,1.7-1,1.7-1.5,1.8-.4.1-2.1.2-3,.7-.9.5-2,.9-2,.9,0,0,0,.7-.6,1-.6.3-2.6,1.6-2.6,1.6,0,0-2.2,1.6-2.8,1.6-.6,0-1.1.2-1.9.8-.7.5-1.6.8-1.6.8,0,0-1.2.7-1.1.2,0-.4-.5-.6-.5-.6,0,0-.8-.8-.4-1.6.5-.8-.3.1-1,.1-.7,0-1.5-.3-2.8-.2-1.3,0-2.7-.7-2.9-1.5-.2-.9-1.3-1.6-2.8-1.8-1.4-.2-2.1-.2-2.1-.8,0-.6-1-.5-1-.5,0,0-1.3-.2-2.1,0-.9.1-2.4-.2-2.4-.2v-.7c0,0-2,1.1-2,1.1,0,0-.6.7-.6,1.1,0,.4-.6,0-1.3.4-.7.4-2.8,1.9-2.8,1.9,0,0-2.6.3-3.2.7-.6.4-2.7.6-3.7,1.7-1,1.1-1.9,1.5-2.3,1.5-.4,0-1.1,0-1.6.5-.4.4-.9.7-1.3.6-.4,0-1.7.6-1.7.6l-1.4.4s-.7.1-.9.5c-.2.4-.6,1.7-1.5,1.6-.8,0-1.7,0-1.7,0,0,0,.2,1-.6,1-.8,0-1.6,0-2.3.3-.7.4-.5,1-1,.9-.6,0-1.6,1.5-1.6,1.5,0,0,0,.7-.5.7-.4,0-.8-.6-2,.5-1.2,1.1-4.6,2.6-5.2,3.3-.6.7-1.7,1.2-1.7,1.2,0,0-1-.7-1,.4,0,1.1-.5,1.1-.2,1.3.3.1,1,.5,1,.5,0,0,1.6.3,1.5.9,0,.6,1.1,1.9,1.6,2.1.6.2,1.2,1.2,2.2,1.2,1,0,2.6.9,2.6.9,0,0,.2.9,1,.2.7-.7,1.6-.9,2.3-.8.7.2,1.7-.5,1.7,0,0,.4.1.7,1,.7.9,0,1.6,0,1.6,0,0,0,.4-.4.9-.4.4,0,1.8-.2,1.8-.2,0,0,1,0,1.6-.6.6-.5,2.3-.3,2.3-.3l.7-.8s-.3-.6.5-1c.7-.4,2-1.3,2.6-1.7.6-.4,1.4.2,1.7-.4.3-.6.6-.4,1.4-.4.8,0,1.1.5.5,1-.6.5-1.3.5-1.3.5,0,0-.6.1-.5.7.1.6.1,1,.1,1,0,0-.7,0-.6.4.1.4,0,1-.6,1.8-.6.8-1.6,1.4-1.6,1.4l-.9.7s-.7,0-1.3,0c-.6.1-1,.8-.3.8.7,0,1,.6.1.7-.8.1-1.7-.6-2.2-.4-.6.3-1.4.9-1.9,1.1,0,0-1.3.8-1.9,1.5-.6.7-1.7,1.2-3.2,1.1-1.4,0-3.3.6-3.3.6l-1.5,1.6s-.6.8-2-.2c-1.4-1-2.7-1.9-3.3-2.5-.5-.6,0-1.4-1.2-2.2-1.2-.8-1.9-1.9-1.9-1.9,0,0,.4-.7-.5-.7-1,0-2.5-1.7-2.5-1.7,0,0-1.6-1.3-2.5-1.4-.8,0-2.6-1.5-3.2-1.5-.6,0-.8-1.4-3.2-2.1-2.4-.7-4-1.4-5-1.7-1-.3-1.8.6-1.8.6,0,0-1.4,0-1.6.5-.2.4,0,1.1.9,2.2Z"/>
        <path class="cls-1" d="m700,98.7c0-.3,0-.6,0-.8,0-.3,0-.7-.3-1-.1-.2-.3-.3-.5-.5,0-.2,0-.3,0-.5,0-.2,0-.5,0-.7-.1-.5-.5-.9-1-1,0-.4-.3-.6-.6-.8,0,0,.1-.2.1-.2.2-.6,0-1.2-.4-1.6-.4-.4-1-.4-1.5-.2-.2-.3-.5-.6-.9-.8,0,0,.1-.1.2-.2,0-.1.2-.3.2-.4.6,0,1.3-.2,1.8-.8.8-.7.9-1.7.4-2.8h0c0-.4,0-.8-.3-1.1-.2-.3-.5-.5-.8-.7,0,0,0-.1,0-.2.1-.7-.3-1.5-1-1.6-.2,0-.3,0-.5-.1,0,0-.2,0-.2,0,0-.3-.2-.6-.3-.8-.4-.4-.6-.8-.9-1.1-.6-.8-1.2-1.5-2.2-2.4-.2-.2-.5-.3-.8-.3-.2-.5-.5-1.1-1.2-1.5-.2-.1-.5-.2-.7-.1-1,0-1.4-.3-2.1-1.4-.3-.4-.6-.9-1.1-1.3,0-.4-.1-.8-.4-1.1,0,0-.1-.1-.2-.2,0-.1-.1-.3-.3-.4-.4-.4-.9-.5-1.4-.4,0,0-.1,0-.2-.1,0,0,0,0,0-.1-.1-.4-.4-.7-.8-.9-1.7-.7-3.2-1.6-4.9-2.6-1-.5-1.9-1.1-2.9-1.6-.7-.5-1.6-1.2-2.5-1.6-.8-.5-1.1-.9-1.2-1.1,0,0,0-.2,0-.3.5-.1.9-.4,1.4-.8,0,0,.2-.2.3-.2.3,0,.7,0,1,0,3.6-1.6,7.3-3.7,11.5-6.1.6-.2,1.2-.4,1.8-.6,3.4-1,6.9-2.1,9.4-4.7.2-.2.3-.5.4-.8,0-.3.3-.7.6-1.1.3-.5.7-1.1.9-1.8,0-.3,0-.6,0-.8-.3-.9-.3-1.5-.2-2.1,0-.4,0-.7-.2-1,0,0,0,0,0,0,0,0,0-.2,0-.4.4-.5.6-1.2.1-2.3,0-.5,0-1-.5-1.4,0-.2,0-.5-.2-.7-.1-.2-.3-.4-.4-.7-.6-.8-1.3-1.8-2.3-2.6-.7-1.5-2-2.3-3.2-3-.8-.5-1.6-.9-2.1-1.5-.1-.1-.2-.2-.4-.3-.4-.2-1-.5-1.6-.5-.4-.2-.9-.3-1.1-.3,0,0,0,0,0,0-.4-.2-.9-.3-1.4,0,0,0,.1,0,.1,0,0,0-.3,0-.5,0-.5,0-1.1-.1-1.7,0-.9-.3-1.9-.3-2.9-.3-.5,0-1,0-1.4,0-.3,0-.6,0-.9.1-.2,0-.4.2-.7.2-.4.1-1,.3-1.6.7-.5,0-.9,0-1.2,0s-.7,0-1-.1c-.2,0-.3,0-.5,0h-.5c-1.6,0-3.5,0-4.9-.3-.5-.1-1.1,0-1.4.4-.1.2-.2.2-.9,0-.6,0-1.5-.2-2.4.2-1.5,0-2.8.2-4.1.5-1.2.3-2.3.5-3.5.5-1-.3-1.9-.1-2.4,0-.4.1-.5.1-.5,0-.4-.2-.9-.2-1.3,0,0,0,0,0-.1,0-.4,0-1.3-.3-2.1.3-.7,0-1.5,0-2.3-.1-1-.1-2.1-.2-3.3-.1h0c-.3-.2-.9-.7-1.8-.6-1.1-.3-2.1-.1-2.8,0-.7.2-1,.2-1.4,0-.3-.2-.6-.2-1-.1,0,0,0,0,0,0-.4-.2-1-.6-1.8-.6-1.7-.5-3.4-.4-5-.4-.7,0-1.3,0-2,0-.8-.4-1.6-.4-2.2-.4-.4,0-.7,0-.9,0,0,0-.2,0-.3,0-1.3-.2-2.6.3-3.6,1-1.3-.3-2.8,0-4.6,1.1-.3.2-.6.5-.7.9,0,0,0,0,0,0,0,.1-.5.5-.7.7-.6.5-1.4,1.2-1.7,2.2,0,.3,0,.6,0,.9,0,0,0,0,0,0,0,.1,0,.5-.1.7-.1.4-.2.9-.2,1.4,0,0-.2.2-.3.3-.3.3-.5.8-.4,1.3,0,.1,0,.3.2.4,0,0,0,.1,0,.2-.1,0-.2-.1-.4-.2-.3-.1-.6-.2-.9,0-1,.3-1.5,0-2.6-.6-.6-.4-1.3-.7-2.1-.9-1.4-.4-2.4,0-3,.3q-.6.2-.7,0c-.2-.2-.5-.3-.8-.3-.8,0-3.3,0-5.1,1-.8,0-1.6.2-2.2.4-.4.1-.8.2-.9.2-.4,0-.8,0-1.2.3-2.2.4-3.8,1.4-5.4,2.4-1.3.8-2.6,1.5-4.1,1.9-.5.1-.9.6-1,1.1h0c-.2.2-.4.2-.6.2-.4,0-.7.1-1,.4-2.5,2.3-4.2,4.9-5.9,7.3l-.3.4c0,0,0,.1-.1.2-.2.4-.3.9-.4,1.3-.2.7-.3,1.1-.7,1.4-.3.3-.5.7-.5,1.1s0,.3,0,.4c-.4,1-.6,2-.6,3.1,0,0,0,.1,0,.2-.2-.2-.5-.4-.7-.5-.6-.4-1-.8-1.4-1.3-.2-.3-.6-.5-1-.5l-2.1-.2c-.5,0-.9.1-1.2.5l-1,1.1-1.5.8c-.1,0-.2.1-.3.2-.1-.2-.2-.4-.3-.5-.2-.2-.3-.4-.6-.5-.3-.1-.4-.3-.7-.8-.4-.7-.9-1.6-2.3-2-.4-.3-.8-.5-1.2-.7-.2,0-.5-.2-.6-.3-.2-.4-.5-.6-.9-.8-.8-.2-1.6-.6-2.5-1,.7-.7,1.6-1.3,2.5-1.9,1.3-.8,2.7-1.8,3.9-3.2,0,0,1.9-2,1.9-2,1.4-1.5,2.8-2.9,4.2-4.6,1.3-.7,2.3-1.5,3.2-2.3.8-.7,1.6-1.4,2.6-1.9.4-.2.6-.5.7-.9,0,0,0,0,0,0,0-.2.2-.4.2-.6.3-.1.7-.3,1.1-.6.3-.3.4-.8.4-1.2.2-.2.5-.5.6-.9.3-.6,0-1.3-.4-1.7-.3-.2-.3-.3-.3-1,0-.6,0-1.4-.5-2.3,0-.8-.4-1.4-.6-1.7,0,0,0-.1-.1-.2,0-.3,0-.6,0-.9-.2-.4-.5-.7-.9-.8-.6-.2-.8-.5-1.2-1.2-.4-.7-.9-1.6-2.1-2.2,0,0-.1-.2-.2-.3-.5-.7-1.2-.8-1.7-.9,0,0,0,0-.1,0-1.3-1.9-3.7-3.3-5.8-4.2-.1,0-.3-.1-.4-.1-.4,0-.8-.2-1.2-.3-.7-.2-1.5-.5-2.4-.5-.7-.3-1.4-.5-2.1-.6-.5,0-.9-.2-1.2-.3-.3-.1-.6-.2-.9-.1-.3-.2-.7-.5-1.4-.6-.6-.3-1.3-.4-1.9-.5-.4,0-.8,0-1-.2-.1,0-.3-.2-.5-.2-.1,0-.3,0-.4,0-.7-.1-1.3-.3-2.2-.1-2.9-1.1-5.2.6-6.8,1.8-.5.4-.9.7-1.3.9-.3.2-.6.5-.7.9-.3,1,0,1.7.2,2.2,0,0,0,0,0,.1-.4.5-.6,1-.6,1.5-.5.6-.7,1.4-.4,2.4-.3.3-.6.6-.6,1.1,0,1.5-1.1,3-2.3,4.5-.4.5-.7.9-1,1.4-.2.4-.3.8-.2,1.2.1.4.4.8.8.9.3.2.7.3,1,.4.2,0,.4.1.6.2,0,0,0,0,0,.1-.4.4-.6,1.1-.3,1.7.4.9,0,1.8-1.6,3.4-.5.5-.5,1.2-.2,1.8.2.3.5.5.8.6-.2.5-.1,1,.1,1.6-.2.1-.5.3-.8.4-.7,0-1.3.3-1.7.7-.7.7-.7,1.7-.6,2.2v.2c-1.5.9-2.2,2.1-2.9,3.2-.9,1.4-1.5,2.3-3.2,2.6-.6.1-1.1.5-1.2,1.1,0,.2,0,.5,0,.7,0,0-.1.2-.2.3-.3.2-.6.3-.9.5-.2.1-.4.3-.5.3-.6,0-1.3.3-1.5.9-.2.6-.2,1.1-.3,1.4,0,.3,0,.4,0,.5-.8.2-1.3.8-1.6,1.2,0,0,0,0-.1.1h0c-.4-.2-.9-.1-1.2,0h-.1c-1.2.7-2.7,1.6-3.5,2.9-.6,0-1.6.2-2.1,1.3-.3.7-.2,1.2,0,1.6,0,.2.2.3.3.5-.2.6,0,1.1.1,1.3.3.9.9,1.5,1.5,2.1.2.2.3.4.5.5.2,1.1.9,1.9,1.5,2.5.2.2.3.3.5.5.5,1.2,1.6,1.9,2.7,2.5.7.4,1.4.9,1.6,1.3.1.3.3.5.6.7.6.3,1.2.3,1.6.3,0,0,0,0,.1,0,.2.2.4.3.6.4.7.2,1.4.2,2,.2.6,0,1,0,1.3.2,0,0,0,0,0,0-.5.4-1,.8-1.4,1.3-.7.2-1.5.6-2.1,1.4-1.2.5-2,1.3-2.7,2-1,.9-1.6,1.6-3.1,1.5-2,0-3.1,1-3.9,1.7-.7.6-1.1,1-1.8,1-.2,0-.4,0-.5.2-2.2,1.2-3.3,3-3.1,4.8,0,.4.3.8.6,1,.2.1.2.3.4.9.1.5.3,1.1.6,1.8.3,2.2,2.2,3.8,3.6,5l.2.2c0,0,.2.1.3.2.9.4,1.8.7,2.6.9.3,0,.7.2,1,.3.5.3,1,.8,1.6,1.4,1,1.1,2.3,2.4,4.3,2.7,2.2,1.6,4.9,2,7.6,2.4.9.1,1.8.3,2.7.5,0,.2.1.4.2.6.1.7.3,1.6,1.1,2.2-.2.2-.4.3-.6.4-.2.1-.4.3-.6.4-.2.1-.3.3-.4.5-.1.3-.4.6-.7.8-.4.4-.8.9-1.1,1.5-.3-.3-.7-.5-1.1-.5h-.1c-.1-.2-.3-.3-.5-.4-.6-.3-1.4-.1-1.8.4l-.5.6c-.3.4-.4,1-.1,1.5.2.5.8.8,1.3.8-.4.3-.8.8-.9,1.5,0,.4,0,.8.2,1.1,0,0,.1.1.2.2,0,.2-.2.3-.3.5-.4.7-.6,1-1,1.2,0,0-.2.1-.2.2,0,0,0,0,0,0-.3-.2-.6-.3-.9-.3h-.4c0-.3.1-.5,0-.8-.3-1.1-.8-1.7-1.6-1.9-1.2-.3-2,.8-2.6,1.5-.1.2-.4.5-.4.5,0,0,0,0,0,0-.4.2-.7.7-.7,1.2,0,.3,0,.6.3.9,0,.2,0,.4,0,.6,0,.2,0,.4,0,.6,0,.3.3.5.5.6,0,.2,0,.4.1.5,0,0-.2,0-.3,0-.4,0-.9.2-1.4.4-.4.2-.7.5-.8.8-.5,1.5,0,2.6,1.6,3.3,0,0,0,0,.1,0,0,.2.1.4.2.5.2,1.1,1,1.5,1.8,1.5,0,.1,0,.3.2.4.2.3.4.5.7.6,1.2,2.2,3.9,2.8,6.1,3.3.6.1,1.2.3,1.8.4.3,0,.6,0,.9,0,.1,0,.5,0,.7,0,.8.1,1.9.3,3-.3.2,0,.3-.2.4-.4.3-.4.6-.5,1.6-.8,1.6-.4,2.1-1.3,2.5-1.9h0c2-.5,2.3-2.1,2.5-3,0-.3.1-.6.2-.7.3-.4.3-1,.1-1.4.1-.3.1-.7.1-1,.2-.2.3-.4.4-.6.1-.4,0-.9-.2-1.3,0-.1,0-.4,0-.6,0-.2,0-.4.1-.6,0,0,0,0,0,0,.7-.2,1.7-.5,2.3-1.3,1-.3,1.3-1.1,1.5-1.5,0,0,0,0,0-.1.3-.1.5-.3.6-.5.1,0,.2-.2.4-.3h.1c.7-.9,1.6-1.8,1.9-2.9.3-.2.5-.5.7-.7.2-.3.3-.7.3-1.1.1-.1.3-.2.4-.4l2.6-4.2c.2-.3.2-.6.2-.9.9-.4,1.7-.9,2.4-1.3,1-.7,1.8-1.2,2.8-1.2.2,0,.4,0,.6-.2.9-.5,1.7-.7,2-.7.4,0,.8-.2,1.1-.4.2,1.5.3,2.8,0,4.2,0,.1,0,.2,0,.3,0,.7.2,1.3.4,1.7,0,.1.1.2.1.3-.2.3-.3.7-.2,1.1.3,1.5,1,3.6,3.3,5.2.1,0,.3.2.4.2,1.1.3,2.2.7,3.3,1.1,2.4.9,4.8,1.8,7.8,1.9.3,0,.5,0,.8-.2.4-.2.8-.2,1.5-.2,0,.3,0,.6,0,.7,0,.3.3.6.6.8.9.6.9,1.5.8,2.8v.2c0,.6.3,1.1.8,1.4.3.2.4.3.7.7.2.3.6.8,1.1,1.2.6,1.1,1.8,1.4,2.7,1.7.4.1,1.1.3,1.3.5.3.5.9.7,1.4.6.3.2.8.3,1.4.3.2,0,.3.1.5.1.2.2.4.4.6.5.5.2,1,.2,1.4.2.2,0,.6,0,.7,0,.2.1.3.2.5.3.6.2,1.4.2,2.1.2s.9,0,1.1,0c.3.4.7.7,1.2.7h.3c-.1,0-.3.1-.4.2-1.5,1.2-4.5,1.4-6.7.9-.3-.2-.7-.4-1.3-.5-.7-.6-1.6-.6-2.2-.4-.1-.3-.3-.6-.6-.8-.4-.3-.8-.4-1.3-.2-1.1.3-1.9,0-2.8-.4-.9-.4-2-.9-3.4-.7,0,0-.2-.2-.2-.2-.7-.4-1.4-.6-2.2-.7-1.1-.8-2.5-1.2-3.9-1.6-.7-.2-1.3-.4-1.9-.6-2.1-1.6-4.9-2.2-7.6-1.9-1.4-.3-2.4.4-2.9.8-.6.4-.6.4-.8.3-.3-.1-.7-.1-1,0-.1,0-.3,0-.5.1-.4.1-1.1.3-1.6.8,0,0-.1,0-.2,0-.4,0-.7.2-1,.4-.1.1-.5.3-.8.4-.7.3-1.5.6-2.1,1.4,0,0-.1.2-.2.3-.5,1.2-.5,2.2,0,3.1,0,.8.2,1.6.4,2.1,0,.3.3.7.2.9,0,.5.2,1.1.6,1.4,0,0,.2.1.4.2.2.3.4.6.5.9.2.4.6.8,1,.9.4,0,.5.2.8.6.4.5,1,1.2,2.1,1.6.2.2.3.3.5.5,1.1,1.1,2.2,2.2,3.9,3h0c-.1,0-.2,0-.4,0-1.6.2-2.9,1-3.6,2.5-2,.8-2.2,2.5-2.2,3.4,0,.8,0,.9-.5,1.1-.4.2-.7.5-.8.8,0,.2-.1.5,0,.7-.1,0-.2.2-.3.3-.6.5-1.7,1.5-1.4,2.9,0,.1,0,.3.2.4.2.3.2.6.2,1.1,0,.8.2,1.8,1.1,2.8.3.8,1,1.2,1.4,1.4,0,.1,0,.2,0,.3.1.4.5.7.8.8.4.1.6.3.8.5-.6.1-1.2.2-1.9.4-2.2.5-4.4.9-6.8.8-.3,0-.5,0-.7.2-.8.4-1.6.6-2.1.5-.3,0-.5,0-.8,0-.1,0-.6,0-.9,0-.2,0-.5,0-.7,0-.3,0-.6,0-.8.2-.2,0-.5,0-.7,0-.2,0-.6,0-.9,0-.3,0-.5,0-.8,0-.4,0-.8,0-1.2.1-.3,0-.8.1-.9,0,0,0,0,0,0,0-.3-.2-.6-.3-1-.3-.1,0-.4,0-.6,0-.5,0-1.3,0-2,.3-1.1,0-2.9,0-3.9-.5-.3-.1-.5-.2-.8-.1-1.1.2-2.2-.2-3.4-.6-1.6-.5-3.5-1.2-5.8-.4-.6.2-1,.8-1,1.4-.1.1-.2.3-.3.4,0,.2-.1.3-.2.5-.4,0-.7.2-.9.4-.4,0-.9,0-1.5.2-.5.1-.9.5-1,1.1,0,0,0,0,0,0-.2,0-.3,0-.5.2-.8.5-1,1.1-1.1,1.6-.2,1.1.5,1.9.9,2.5.1.2.3.4.4.5.1.3.3.5.5.7,2.3,1.6,4.9,3.4,8.4,3.8,2.3.5,4.8.8,7.2.9.2,0,.4,0,.6,0h.3c0-.1,3.1.1,3.1.1.3,0,.5,0,.7-.1h0s.2,0,.3,0c.4,0,.9,0,1.6-.2.3,0,.5,0,.8-.1.7,0,1.4-.2,2.1-.4,1,.1,1.9-.2,2.6-.4.2,0,.5-.2.7-.2,1.1.3,1.9-.2,2.4-.5.2,0,.4-.2.5-.2,2.4-.3,4.7-.7,6.9-1.1,1.6-.3,3.2-.6,4.9-.8-.3.2-.5.4-.6.7-.1,0-.3.2-.3.2,0,0,0,0,0,0-.7,0-1.3.5-1.4,1.2,0-.2,0-.3,0-.3,0,0,0,0,0,.1-.3.3-.4.6-.5.9,0,0-.1,0-.2,0-.1,0-.3.2-.4.2,0,0,0,0,0,0-.6.1-1.1.6-1.2,1.2,0,0,0,.1,0,.2-1.4,1.1-2.9,2.1-4.6,2.8-.4.2-.7.5-.8,1-.1.4-.7.7-1.6,1-.2,0-.4.2-.6.3-1.1,1-2.6,2.3-4,3-.4.2-.6.4-.8.8,0,.1,0,.3,0,.4-.5.5-.7,1-.7,1.4-.2.1-.4.3-.5.5-.7.6-1.6,1.3-1.6,2.4,0,0,0,.1,0,.2-.1,0-.3.2-.4.3-.4.6-.4,1.2-.3,1.4,0,.2.1.4.2.5-.2.1-.4.2-.5.3-.4.2-.8.5-1.1.8-.4.4-.5.9-.4,1.4-.2.2-.4.6-.5,1l-1.2,1c-.2.2-.3.4-.4.6-.2.5-.2.9-.2,1.2h0c-.4.4-.6.9-.5,1.4,0,0-.1.2-.2.3-.2.3-.5.8-.6,1.4-.2.1-.4.3-.5.5-.4.7-.3,1.4-.1,1.8-.3.2-.6.6-.6,1,0,.5.2,1,.6,1.3-.9,4.6,2.3,8.6,4.6,11.5,0,.1.2.2.3.3.1.1.3.2.5.4.7.6,1.7,1.4,3.2,1.3.6.6,1.2.9,1.8,1.2.4.2.8.4,1,.6.1.2.3.3.4.4,3.8,2.2,8.5,3.2,12.9,3.9.2,0,.5,0,.7,0,.1,0,.3,0,.5,0,.7,0,1.5.2,2.3.4.4,0,.9.2,1.3.3.3,0,.5,0,.8,0,0,0,0,0,0,0,.2,0,.7,0,.9,0,.3,0,.5,0,.8,0,.1,0,.3,0,.4,0,1.5.4,3.1.4,4.7.4.8,0,1.6,0,2.4,0,.3.2.6.2,1,.2.5,0,1,0,1.6,0,.8,0,1.7.2,2.7-.1,1.8.1,3.7,0,5.6,0,.6,0,1.3,0,1.9,0,.2.1.4.2.7.2,2.1,0,4-.3,5.9-.7,1.2-.2,2.4-.5,3.6-.6,0,0,0,0,.1,0,.4,0,.7-.2.9-.4,0,0,.1,0,.2,0h.4c.5,0,.9-.1,1.2-.5,0,0,0,0,0,0,.3,0,.6-.1.9-.2.6-.2,1.2-.3,1.6-.2.2,0,.5,0,.7,0,.6-.1,1.1-.2,1.6-.4,1-.2,1.9-.4,2.9-.5.3.1.6.2.9.1,1.3-.3,2.5-.5,3.9-.7,1.3-.2,2.7-.4,4-.7.6,0,1.2-.3,1.6-.4.6-.3.7-.2.8-.2.4.3.9.3,1.4.1.3-.1.5-.3.6-.6.2,0,.5,0,.7,0,.2,0,.5,0,.7,0,1-.3,1.6-.4,2.4-.2.4,0,.9,0,1.2-.4h0c.3,0,.6-.1.9-.3.1,0,.4-.1.7-.1.2,0,.5,0,.8-.1.3,0,.5-.2.7-.4.3-.3.8-.4.9-.3.5.1,1,0,1.4-.2.2-.2.4-.3.7-.3.5,0,1-.3,1.3-.7.2,0,.5,0,.7,0,.1,0,.2,0,.4,0,.2,0,.4,0,.5,0h0c.4.2.9.2,1.3,0,.4-.2.7-.6.7-1.1v-.2c0,0,0-.1,0-.2h0c1.4-.3,2.6-.8,3.8-1.4.1.3.3.6.6.7.5.3,1,.3,1.5,0,.3-.2.6-.2,1-.3.3,0,.6-.1.9-.2.2,0,.4-.2.6-.4h.2c.3,0,.6-.3.8-.6.3,0,.5,0,.7-.2h.1c.2,0,.4,0,.7,0,.2,0,.4,0,.6-.1.4-.2.8-.5,1.1-.7.4-.3.8-.6,1.1-.6.6,0,1.2-.4,1.4-.9.1-.4,0-.8,0-1.1.2,0,.4-.2.6-.3.8-.2,1.3-.8,1.6-1.1,0,0,.2-.2.2-.3h0c.4-.1.7-.5.9-.9.2,0,.4,0,.6-.2.5,0,1,0,1.5-.7.2,0,.4,0,.6-.2.4-.2.6-.5.7-1,0,0,0,0,0,0,.2-.1.4-.3.5-.5.1,0,.3-.2.4-.2,0,0,.1,0,.2-.1.6,0,1.2-.1,1.5-.6.1-.2.2-.4.2-.7.2,0,.3-.1.5-.2.3-.2.5-.6.6-1,0-1,1-1.9,2-2.7.8.1,1.5-.4,2-.7,0,0,.1,0,.2-.1.3-.2.5-.5.6-.8,0,0,0,0,0,0,.6-.1,1.9-.3,2.5-1.5.7-.3,1.1-.8,1.5-1.2.2-.2.3-.3.5-.5.3,0,.7,0,1-.3l.7-.6c.3-.3.5-.7.5-1.2,0,0,0,.1,0,.1,0,0,0,0,0,0,0-.3,0-.5,0-.7,0-.2,0-.4,0-.5.2,0,.4-.2.5-.4.2-.3.3-.6.3-.9,0,0,0,0,0,0,.1-.3.4-.8.3-1.4.6-1,.4-2.1.3-2.7-.1-.6-.2-.8,0-1,.2-.3.2-.7,0-1.1,0,0,0,0,0,0,0-.2,0-.4,0-.7,0-.4-.3-.8-.7-1,0,0,.1,0,.1,0,0,0,0,0,0,0-.1-.2-.4-.5-.8-.7,0-.4-.1-.8-.4-1.1,0,0,0,0,0,0,0,0,0-.1,0-.2,0,0,0-.2-.2-.3,0-.1.2-.3.2-.5.3-1.3,0-2.5-.9-3.2-.3-.2-.7-.4-1-.3,0-.2-.2-.3-.3-.5-.3-.3-.7-.5-1-.7,0-.3-.2-.6-.4-.8-1-.9-2.5-1.7-4.3-2.5-.4-.6-1-.8-1.4-1,0,0,0,0,0,0,0-.2,0-.3-.2-.5-.2-.3-.6-.6-1-.6-.3,0-.5-.2-.9-.4,0,0-.1,0-.2-.1.6.1,1.2.2,1.9.1.7.3,1.5,0,1.9,0,.1,0,.2,0,.4,0,.2.2.6.3.9.2,1.7-.1,3.6-.2,5.5-.3h1.2c1.7.2,3.1-.4,4.2-.9.7-.3,1.3-.6,2-.7,0,0,.1,0,.2,0,.2,0,.8-.3,1.1-.9,0,0,0,0,.1,0,.2-.2.3-.4.4-.6.1-.2.2-.4.3-.6,0,0,0-.1,0-.2,0,0,0-.2,0-.2.4-.2.7-.6.8-1,0,0,0-.2,0-.3,1.3-2.7-1.1-4.7-2.7-5.8-.3-.6-.9-1-1.3-1.2,0,0,0,0,0,0-.1-.4-.3-.7-.7-.9-1.3-.7-3.1-1.2-5.1-1.4-.3,0-.5,0-.7.1,0,0-.2,0-.4,0-.3,0-.8-.2-1.2-.1-1.8-.4-3.4-.3-5-.2-.4,0-.7.2-1,.5-.1,0-.5,0-.8,0-.6,0-1.3-.2-2.1,0-.6-.2-1.1,0-1.3,0,0,0,0,0,0,0-.2,0-.3,0-.5-.1-.7,0-1.4,0-2.1,0-1.6,0-3.2,0-4.5-.6-.4-.1-.7-.1-1.1,0-.6.2-1.1.2-1.8.2-.4,0-.9,0-1.4,0-.8-.6-1.7-.7-2.5-.8-.1-.5-.5-.9-.7-1.1,0,0-.1-.1-.1-.2,0,0,0,0,0,.2-.2-.7-1-1.1-1.7-.9-.3,0-.8,0-1.2,0-.8,0-1.9-.2-2.8.3-.2,0-.5,0-.7,0,0,0-.1,0-.2,0-.5.1-1.2.3-1.7.9-.3.3-.4.7-.4,1.1,0,.4.2.8.6,1,0,0,.1.1.3.4.2.3.5.8,1.1,1.1.1.4.4.7.7.9,0,0,.2.1.3.2,0,0,.1.1.2.1-.1,0-.3,0-.6-.2-.5-.2-1-.5-1.8-.5-.3,0-.6,0-.9.3,0,0-.1,0-.2,0-.3,0-.9,0-1.5.2-.2,0-.4,0-.6,0-.9-.2-1.4.2-1.7.4-.4,0-.9-.2-1.4-.4-.6-.3-1.3,0-1.7.4-.2,0-.6,0-.9,0-.6,0-1.3,0-1.9.3-.3,0-.5,0-.7,0-.4-.2-.9-.2-1.2-.2,0,0-.1-.1-.2-.2,4.2,0,7.9-1.3,10.3-3.6,3.6-3.9,4.1-9,1.3-12.9,0,0,0-.2,0-.3,0-.1,0-.3-.2-.5,0-.5-.3-1.1-1-1.8,0-.4-.3-.8-.7-1-.7-.4-1.1-.9-1.6-1.5-.6-.9-1.4-1.9-3.2-2.6-.3-.1-.6-.2-.8-.2-.1,0-.2,0-.3,0-.3-.3-.7-.4-1.1-.4-.2,0-.6,0-.9-.2-.2,0-.4-.1-.7-.2h0c.1,0,.2,0,.3,0,.8-.1,1.6-.2,2.4-.2h.2c1.2.3,2.2,0,3-.3.7-.2,1.2-.4,1.6-.2.2,0,.5,0,.8,0h.2c.5-.2,1.8-.4,2.3-1.4.5,0,1.1-.1,1.6-.5.1-.1.3-.2.3-.4,0,0,0-.2.1-.3.7-.2,1.2-.6,1.6-1.2.3-.6.4-1.2.2-1.9-.1-.4-.4-.7-.8-.9,0,0,0,0,0,0,0,0,0,0,0,0,.1-.2.2-.3.3-.5,0,0,0-.2,0-.3.2-.8.6-2.1-.6-3.4,0,0-.1-.1-.2-.2-.5-.4-.9-.7-1.3-1-.1,0-.2-.2-.4-.3,1.3-.7,2.9-1.5,3.9-3,.4,0,.7-.1,1-.4l.5-.5c.3-.3.5-.8.4-1.3,0,0,.1-.1.2-.2.2-.3.5-.7.7-1.2.3-.2.5-.4.6-.6.4-.7.2-1.4,0-1.8,0-.2.2-.4.2-.6,0-1.2-.1-2.4-.3-3.6-.2-1.3-.4-2.5-.3-3.7,1-3.5,1-7,1-10.4,0-.9,0-1.9,0-2.8,0-.1,0-.2,0-.3.2-.6.3-1.2.4-1.8,0-.5.1-.9.2-1.2.2-.3.2-.7,0-1.1-.2-.6-.2-1.1-.2-1.8,0-.8,0-1.9-.4-3,.2-1.1-.2-2.1-.4-2.9-.2-.6-.4-1.2-.4-1.8,0,0,0,0,0,.1.3-1.5-.2-2.7-.7-3.7-.4-1-.6-1.5-.4-2.3.1-.4,0-.8-.1-1.2-.3-.4-.6-.8-.9-1.1-.2-.2-.4-.5-.5-.6.1-.5,0-1.1-.5-1.4-.7-.6-1.4-1.1-2.1-1.6-1-.8-2-1.5-3.1-2.6-.2-.2-.4-.3-.7-.4l-2-.4c-1.5-1-4.2-2.2-6.7-1.4-.8,0-1.6.1-2.3.3-.3,0-.7.2-1,.2-.5,0-1,.5-1.2,1-.2.5,0,1.1.4,1.5,0,0,0,0,0,0,0,.1,0,.7,0,1v.3c-.2.3-.3.6-.3.9,0,.4.2.8.5,1.1h.2c0,.4.1.6.2.8,0,.1,0,.3.1.4-.2.3-.3.7-.2,1,0,.4.3.8.7,1,0,0,0,0,.2.5.2.5.4,1.2,1.2,1.8.1,1.5.4,3,.7,4.4.6,3,1.1,5.9.3,8.8-1.2,1.3-.9,2.8-.7,3.8,0,.3.2.9.1,1.1h0c-.4.6-.3,1.4.2,1.9,0,0,0,0,0,0,.1.2,0,.9,0,1.3,0,.3,0,.5,0,.8-.2.2-.4.5-.5.8-.1.6,0,1.2.3,1.5,0,0,0,.2,0,.3,0,.4,0,.8.3,1.1.4.5,1,.8,1.7.9,0,.2,0,.3,0,.4-.2,0-.4,0-.6,0-.4,0-.7.1-1,.4l-.5.4c-.3.3-.5.7-.5,1s.1.7.3.9c-.2.2-.3.4-.3.7,0,.2,0,.4,0,.6,0,.3,0,.6.1.9,0,0,0,0-.2.1-.6.5-.7,1.3-.3,1.9l.8,1.1c.2.3.6.6,1,.6.3,0,.6,0,.8-.1,0,.3,0,.6,0,.8-.2-.1-.5-.2-.7-.2-.5,0-1,.3-1.2.8-.4.8-.5,1.5-.5,2.1,0,.3-.2.6-.2.9,0,.3.1.7.3.9-.5.9,0,1.8.2,2.2,0,0,0,.1.1.2-.1.3-.1.6,0,.9,0,.4,0,.8.2,1.1.2.4.5.6.8.8,0,.2,0,.4.2.6.5.8,1.2,1.4,1.9,1.8-1,0-1.8.1-2.6.3-.4,0-.7.1-1,.2-.4,0-.7,0-1-.1-1.6-.2-3.3-.5-5.3,0,0,0-.2,0-.3.1-1.4.7-2,1.6-2.3,2.4,0,0,0,0-.1,0,0-.2,0-.4,0-.6-.2-.9-.8-1.4-1.4-1.6,0-.3,0-.6-.3-.9-.5-.7-1.3-.7-1.7-.7-.8-.4-1.6-.5-2.3-.5-.2,0-.3,0-.5,0-.2-.7-.8-1.2-1-1.4h0c0-1-.7-1.5-1.2-1.9,0,0,0,0,0,0,0,0,0-.2,0-.2,0-.3,0-.5-.2-.7-.4-.9-1.3-1.2-2-1.5-.2,0-.5-.2-.6-.3,0,0,0,0,0-.1.2,0,.3-.1.4-.2.7-.3,1.1-.4,1.5-.3.6.2,1.2,0,1.6-.5.5-.7,1-.7,2.5-.7.7,0,1.5,0,2.4-.2.4,0,.7-.3.9-.6h0c0-.1.6-.2.9-.3.5,0,1.1-.2,1.7-.6,1,0,1.7-.5,2-.7,0,0,.1-.1.2-.1.3-.2.6-.6.6-1,.6-.5.8-1,1-1.4q.2-.3.3-.4c.2,0,.4-.2.5-.3.3-.3,1.2-1.1,1.1-2.3-.1-1.1-1.1-1.7-1.8-2-.2,0-.5-.3-.6-.4,0-.2,0-.5-.2-.7-.6-1-1.6-1.7-2.8-1.9-.3-.3-.7-.5-1.3-.6-1.6-1.6-3.7-1.4-5.4-1.2-1.2.1-2.3.2-3-.3-.4-.3-1-.3-1.4,0,0,0-.2,0-.2,0-.5-.1-1.4-.3-2.2.2,0,0-.2,0-.3,0-.9.3-1.6.5-2,.3-.3-.3-.8-.3-1.2-.2h-.3c-.4.1-.9.3-1.3.5-.2-.2-.3-.4-.6-.5-.8-.4-1.7-.4-2.4,0-.2,0-.4-.2-.8-.6-.3-.3-.6-.5-1-.8-.6-.4-1.3-.3-1.8.2,0,0-.3.3-.6.4-.2.2-.5.4-.7.6,0,0-.2,0-.3,0,0,0,0-.1-.1-.1-.3-.3-.6-.5-1-.5-.4,0-.8.1-1,.4-.3.3-.6.4-1.1.5,0-.6,0-1.4-.8-2-.8-.7-1.9-.5-2.7-.3-.2,0-.4,0-.6.1-.7,0-2.2.2-2.7,1.8,0,.2,0,.5,0,.7,0,0,0,0,0,.2-.3,1.4,0,2.4,1.3,3,.1,0,.2,0,.3,0,1,.2,1.8,1.1,2.5,2,0,0-.2,0-.2,0-.5.2-1.1.4-1.5.7,0,0-.2.1-.2.2-.7-.2-1.6-.4-2.7.3,0,0,0,0,.1,0-2.4,1.1-5.4,1.6-7.5,1.1-.2,0-.4-.1-.6-.2-.3,0-.9-.3-1.2-.4.5-.3,1.1-.6,1.5-1.3.1-.2.2-.5.2-.8.3-.3.7-.9.7-1.7s0,0,0,0c1.1-.2,2.1-.7,2.9-1.5,1.1-1.2,1-2.5.8-3.5.2,0,.4-.2.7-.3.2.3.5.6.9.6,1.7.3,3.2-.8,4.2-1.6.1,0,.2,0,.3,0,.6-.1,1.4-.3,1.8-.2.3,0,.5,0,.8,0,.4-.1.8-.3,1.3-.4.9-.3,1.7-.6,2.6-1.1,1.4-.2,2.4-.9,3.3-1.6.4-.3.8-.5,1.1-.7.5-.2.8-.7.8-1.2,0-.4,0-.7-.3-1,0,0,0,0,0-.2.1,0,.2-.2.3-.3.2-.2.3-.6.3-.9,0,0,0-.1,0-.2.2-.4.6-1.2.3-2.1-.3-.6-.8-1.1-1.6-1.3-.1,0-.3,0-.4,0-1.1,0-2.1-.3-3.2-.6-.3,0-.6-.2-.9-.3.3-.3.5-.6.7-1,.9-.4,1.4-1,1.9-1.5.3-.3.5-.5.7-.6.1,0,.3-.1.4-.2,0,0,.1,0,.2,0,.5-.1,1.5-.3,1.8-1.3,0-.1,0-.3,0-.4h.2c.2-.3.3-.5.4-.7,0,.2,0,.4,0,.6-.2.1-.3.2-.4.4-.3.4-.3.9-.2,1.4,0,0,0,0,0,.1-.2.3-.3.7-.2,1.3,0,0,0,0,0-.2,0,.4,0,.8.3,1.1.2.2.5.4.8.5.1.3.4.6.8.8.1,0,.3.1.4.1.3.3.7.4,1.2.6.6.1,1.3-.2,1.6-.8.2-.5.3-1.1,0-1.7,0,0,0-.1,0-.1,0,.3.2.6.5.8l1,.8c.2.1.4.2.6.3.7.1,1.3,0,1.7-.3.2-.2.4-.3.5-.5.5.4,1.3.7,2.5,0,0,0,.1,0,.1,0,0,0,0,0-.2,0,.5,0,1-.4,1.1-.9.4-.2.7-.5.9-.9.7,0,1.3-.4,1.4-1.1h0c.1-.2.3-.2.4-.3,0,0,.1,0,.2,0,.4,0,.9,0,1.2-.3h.1c0-.1,0-.1,0-.1.1,0,.3,0,.5,0,.4,0,.8-.2,1-.6l.8-1.1c.4.1.8.1,1.1,0,0,0,0,0,0,0,.3,0,1.1-.2,1.4-1,0-.2.2-.5.1-.8.5-.2,1-.6,1.3-1.2,0-.1,0-.2,0-.3h0c.3-.4.5-.8.5-1.2,0-.2,0-.4,0-.6,0-.3,0-.5,0-.8-.2-.4-.5-.7-.9-.8,0-.1,0-.3,0-.4,0-.2,0-.5,0-.8,0,0,0,0,0,0,0,0,0,0,0,.2.1-.6-.1-1.2-.6-1.5-.3-.2-.3-.3-.3-.3,0-.1.1-.6.2-.9.3-.8.6-1.9.2-3.1,0,0,0,0,0,0,.2-.7.4-1.4.4-2,.1-.2.2-.5.2-.7s0-.4-.1-.5c.5-2,.7-4.2.6-6.4.1-1.2.6-2.3,1.2-3.5l.4-.9c.1-.3.1-.7,0-1.1,0-.1,0-.2,0-.4,0-.3,0-.5-.1-.7.2-.7,0-1.5-.6-2.2,1.9.9,3.6,1.8,5.3,2.9.2.1.5.2.7.2.2,0,.4.1.7.3.6.4,1.4.9,2.7.7.9.5,2,.8,2.9,1.1.7.2,1.3.4,1.9.7.1,0,.3.1.4.1l3.6.3c.4.4,1.1.9,2.1.9,0,0,.2.2.3.2,0,.2,0,.5,0,.7.8,2.1,2.8,2,3.7,1.9,0,0,.2,0,.3,0,0,.1,0,.2,0,.4-.5.1-.9.4-1,.9l-.3.8c-.2.5,0,1.1.3,1.5,0,.2-.1.4-.1.6,0,.7.3,1.1.7,1.4.1.8.6,1.5.9,1.9,0,0,0,0,0,.1-.1.2-.2.5-.2.7,0,1,.6,1.7,1,2.1,0,0,0,0,0,0,0,.3,0,.6.2.9.2.4.6.7,1.1.8,0,0,.2,0,.3,0,0,.1,0,.3,0,.4,0,0,0,.2,0,.3,0,.4.1.7.4,1,0,.1,0,.2,0,.4.3.9,1.1,1.2,1.8,1.5.1,0,.4.1.5.2,0,.1,0,.2.1.4.5.9,1.4,1.5,2.1,1.9.3.2.7.4.8.5,0,.4.3.7.6.9,1.4.9,2.9,1.5,4.5,1.9.8.9,2,1.2,3,1.5.6.2,1.1.3,1.5.6,0,0-.1,0-.2-.1.3.3.6.5.9.7-.4.2-.8.6-1,1.2-.6,0-1.5.2-2,.9-.4.5-.5,1.2-.1,1.8.7,1.1,2,1.6,3.1,2-.8.1-1.5.3-2.2.7-.6.4-.8,1.1-.6,1.7,0,.2.1.3.2.4-.4,0-.8,0-1.1.1-.2,0-.6.1-.7.1,0,0,0,0,0,0-.5-.3-1.1-.3-1.6,0-.1,0-.3-.1-.4-.2-.4-.2-.8-.4-1.4-.5-.6,0-1.3.2-1.5.8-.3.6,0,1.3.4,1.7l1.2,1c.4.3.9.4,1.3.3,0,0,.2,0,.3,0,.3.1.6.2.9,0,.1,0,.5,0,.6.1.9.2,1.5.2,2-.1,1,.2,1.8-.2,2.3-1,.4-.6.2-1.4-.3-1.8,0,0,0,0,0,0,.5,0,.9.2,1.4.4.7.3,1.5.5,2.5.6,0,0,.1,0,.2,0,0,.2-.2.4-.2.6,0,0,0,.1,0,.2,0,0-.2,0-.3,0-1.5.5-1.8.9-2,1.5,0,.5,0,1,.5,1.4,0,0,0,0,0,0-.6.2-1.1.6-1.4.8-.1.1-.4.3-.5.4-.8-.3-1.8-.3-2.7-.2-.7,0-1.4,0-1.9,0,0,0,0,0,0,0,0,0,0,0-.1,0-1.6-.8-2.5.2-2.7.7-.3.6-.3,1.3.2,1.7l.8.8c.3.3.7.4,1.1.4,0,0,.1,0,.2.1.3.2,1,.6,1.9.4.2,0,.3,0,.5,0h0s.1,0,.2,0c0,.1-.2.3-.2.5-.9-.1-2.3-.2-3.2.8-.3.3-.4.8-.3,1.3,0,.5.4.8.8,1,.8.4,1.7.5,2.7.5.5.4,1.2.6,2.3,0,.4.2.9.2,1.3,0,.8.3,1.6,0,2,0,.1,0,.2,0,.3,0,.3.3.7.4,1.2.4.2,0,.7,0,1.1,0,.9,0,2.1.1,3.1-.3.5,0,.9,0,1.3,0,0,0,.2,0,.4,0,.1.2.3.3.5.4,0,.1,0,.3.1.4.3.6.8.8,1.1.8.3.2.7.4,1.1.3,1.2-.2,2.4-.2,3.6-.2,1.1,0,2.3,0,3.5-.1.7.4,1.5.4,2.1.3.2,0,.5,0,.6,0,.1,0,.3,0,.4,0,.3,0,.6-.1,1-.2.7-.1,1.4-.3,1.8-.2.3,0,.5,0,.8-.1.8-.3,1.6-.6,2.5-.9,1.4-.4,2.8-.9,4-1.6,1.6-.3,2-1.3,2.3-1.9,0,0,0-.2,0-.2,2.1-1,2.1-3.3,2-4.6Zm-2.6-12c0,0,0,.2-.1.3,0,0,0-.2.1-.3Zm-124.5-51.3c0,0-.1-.2-.2-.3,0,0,.1.2.2.3Zm7.1,67.3c0,.1,0,.2,0,.3,0-.1,0-.2,0-.3Zm93.9,5.1s0,0,0,0h0Zm-31-46.1c0-.1,0-.2,0-.3.1-.2.3-.4.5-.5-.1.5,0,.9,0,1.3-.1,0-.2,0-.3.1-.2-.1-.2-.3-.3-.5Zm-35.6,60.6c0-.1,0-.3,0-.4,0,.1,0,.2,0,.4Zm-59.1-4.7c0,0,0-.2,0-.3,0,.1,0,.2,0,.3Zm146.2-27.6h0s0,0,0,0Zm-26.8,7.6c0,0-.2,0-.3-.1,0,0,.2,0,.3.1Zm0-.8c0,0,.1.2.2.2,0,0,0,0-.1,0-.1,0-.3,0-.4.2.1-.1.3-.3.3-.5Zm-90.8-21.3c0,0,.1,0,.2.1,0,0-.2,0-.2-.1Zm-13.9-5.6c.1,1.2.7,2.2,1.2,3,.5.8.8,1.3.8,1.8-.3.8-.1,1.4,0,1.8,0,0,0,0,0,0-.4.4-.5.9-.4,1.4,0,0,0,0,0,0,0,.1,0,.4,0,.6,0,.3-.2.7-.2,1.1-.1.2-.3.4-.5.6-.7.7-1.8,1.9-1.3,3.4l-.3,2.3c0,.2,0,.4,0,.6.5,1.3.5,3,.5,3,0,1.2.5,3.7.8,5.1-.4.5-.6,1.2-.5,2-.2,0-.4.2-.6.3,0-.1,0-.3-.1-.4,0-.2-.2-.4-.4-.5l-2-1.8c-.3-.3-.8-.4-1.3-.3-.3,0-.6-.2-1.3-.9-.2-.2-.5-.5-.8-.7-.6-.5-1.5-.4-2,.2,0,0,.1,0,.1,0-.1,0-.5,0-.7.1-.4,0-1,.1-1.6.4-1-.6-1.8-.7-2.5-.3-.3,0-.7,0-1,.2-.1,0-.4,0-.6-.1-.4-.1-1.5-.4-2.4,0-1.2-.4-2.4-.2-3.3,0-.2,0-.4,0-.6.1-.4,0-.8.3-1,.7l-.2.3c-.5,0-1,0-1.6,0-1.1,0-2.3,0-3.3.5h-.3c0,0-.2-.2-.3-.2,0,0,0,0,0,0,0,0,0,0-.1,0,0,0,0,0,0,0,0-.3-.2-.6-.4-.8.4-1.5-.4-2.3-1.1-2.6,0,0,0,0-.1,0,0-.2,0-.4,0-.6,0-.3-.2-.6-.4-.8-.4-.4-.8-.6-1.3-.7,0,0,.2,0,.3,0,1.3-.2,2-.8,2.4-1.3.4-.1.7-.3,1.1-.5.4-.2.9-.4,1.1-.4.4,0,.8,0,1.1-.2l.6-.4c1,.2,1.8-.4,2.2-.7,0,0,.1,0,.2-.1.2,0,.4.1.7,0,.6-.1,1-.4,1.4-.6.1,0,.3-.2.4-.2.4.3,1,.4,1.5.2.3-.2.6-.4.9-.6.2-.1.5-.4.7-.4.3,0,.7,0,1-.2.9-.5,2.2-.7,3.5-1,1.5-.3,3-.5,4.4-1.3.3-.1.5-.4.6-.6,0,0,.1,0,.2,0,.5,0,1-.1,1.5-.3,2.6-1,3.9-2.8,4.1-3,0-.1.1-.2.2-.4.6-1.7.9-4.3,1-4.5,0-.3,0-.5-.1-.8-.1-.3,0-.5,0-.7.2-.2.2-.5.2-.8v.2Zm-34.1,26.5c-.1,0-.2,0-.3,0,.1,0,.2,0,.3,0Zm25.3-15.5c0,0-.2,0-.3,0,0,0,.2,0,.3,0Zm-26.7,35.3c0,.2.1.3.1.5h-.4s0,0,0,0c0-.2.2-.3.3-.5Zm-.4.8c.2,0,.3.2.5.2,0,0,0,0,0,0-.1.1-.3.2-.5.3,0-.2,0-.4,0-.5Zm-.6,10.6c0-.1,0-.2-.1-.4,0-.3.3-.5.7-.1l-.6.5Zm-2.8-3.2s0,0,0-.1c0,0,0,0,0,0,0,0,0,0,0,0Zm-.2,0c-.8,0-.4.6-.6.9,0,0-.2,0-.2-.1,0,0-.2-.1-.2-.2,0-.2,0-.4,0-.7.1-.1.3-.2.5-.2,0,0,0,0,.1,0h0s.5.4.5.4Zm104.5-20.9s0,0,0,0h0s0,0,0,0Zm.3,1.1c0,0,.1-.2.2-.2,0,0-.1.1-.2.2Zm-63.8,45.3s0,0,0,0t0,0s0,0,0,0Zm0,0s0,.1.1.2c0,0-.1-.1-.2-.2h0Zm74.9,24.1c.8.3,1.6.2,2.3.1,0,0,0,0,0,0-.1.6.2,1.2.7,1.5-.4.4-.4,1-.2,1.6.6,1.2,1.9,1.2,2.6,1.2s.3,0,.4,0c.8,0,1.5-.4,1.6-1.2,0-.1,0-.3,0-.4,0,0,.2,0,.3,0,.2,0,.4,0,.5.1.7.2,1.4.3,1.8.6.3.2.7.2,1.1.1.2,0,.6.2,1,.1.5.2,1.1.3,1.6.3,0,0,.2,0,.3,0,0,.2,0,.5.1.7,0,0,0,.2.2.3,0,.3,0,.6,0,.8.1.4.5.8.9.9,0,0,0,0,0,0,0,0,.2.1.3.2.3.3,1,.9,1.9.9.3.5.8.8,1.8,1,0,0,0,0,.1,0,.1.3.4.5.6.6.3.1.7.2,1.1,0,1,.2,1.3.5,1.4.6h0c.1.4.5.8,1,.9,0,0,0,0,.1,0,.5.3,1,.4,1.4.4,0,0,0,.2.1.3,0,0,0,0,0,.1-.3.4-.5.9-.3,1.4.4,1.3,1.2,2.3,1.8,3.2.3.4.6.8.8,1.1,0,0,0,0,0,0-.7.4-1,1.1-1,2,0,.1,0,.2,0,.4,0,.2.1.3.1.4.1.3.2.6.2.8-.3.4-.4.8-.3,1.3,0,0,0,0,0,0,0,0-.1,0-.2,0-.5.2-.9.6-1,1.2h0c-.2.5-.4.8-.4,1.2,0,.4,0,.9.3,1.3,0,0,0,0,0,0-1.1-.3-1.8.2-2.2.5-.1,0-.3,0-.4,0,0,0-.2-.1-.2-.1h0c0-.1,0-.3,0-.4,0-.4-.3-.8-.7-1-.4-.3-.7-.6-1-1-.4-.5-.9-1.2-1.9-1.7-.3-.2-.7-.2-1-.1,0-.2,0-.4,0-.6,0-.6-.4-1.1-1-1.3,0,0,0-.2-.1-.3-.1-.4-.3-.8-.7-1.2-.3-.3-.6-.4-1-.4-.2-.1-.3-.2-.5-.4,0,0,0,0,0-.1.1-.5,0-1.1-.5-1.4l-.8-.6c-.4-.3-.9-.4-1.4-.2-.1,0-.3.2-.4.3,0,0-.2-.1-.2-.2-.6-.9-1.6-1.9-2.6-2.5-.2-.1-.4-.2-.6-.2h0c-.2-.2-.5-.4-.8-.4h0c-.4-.8-1.3-2.4-3-2.8-.5-.6-1.1-.8-1.7-.9,0,0,0-.1,0-.2l-.4-.5c-.2-.4-.6-.6-1.1-.6-.2,0-.4,0-.6,0,0,0-.2,0-.3-.1,0-.3.1-.5,0-.8,0-.2-.2-.4-.3-.5.1-.4,0-.7,0-.8,0-.3-.2-.5-.4-.7,0-.1,0-.3-.2-.4-.2-.3-.4-.4-.7-.5-.4-.3-.9-.3-1.4-.2,0,0-.1,0-.2,0-.4-.1-.9-.3-1.6-.2,0,0,0,0,0,0-.2-.2-.6-.5-1.1-.5,0,0,0-.1-.1-.2-.2-.2-.4-.3-.6-.4,0,0-.2-.2-.3-.2-.2-.1-.4-.2-.6-.2h-.9c0,0-.9-.1-.9-.1-1.5-1-3.1-.2-3.9.2-.2,0-.4.2-.5.2-.7.2-1.9.3-2.7.2-.3,0-.6,0-.9.1,0,0-.2,0-.6-.2-.6-.2-1.3-.5-2.3-.3l-2.7-.2h-.7c-.2,0-.4,0-.6,0-.3,0-.7,0-1.2,0-.4-.4-.8-.6-1-.6-.9-.1-1.5.4-1.7.6h0c-.1,0-.2.1-.3.2-.3-.1-.8-.2-1.3-.2s0,0,0,0c0,0,0,0,0,0,0-.6-.4-1.1-.9-1.4-.2-.2-.5-.3-.7-.3,0,0,.2,0,.3,0,.2,0,.4-.2.6-.4.1,0,.3,0,.5,0,0,0,.1,0,.2.1.3.2.7.3,1.1.2.2,0,.6,0,.9,0,.3,0,.6,0,1,0,.5.3,1.1.2,1.4.2,0,0,0,0,.1,0,.4.1.8,0,1.2-.1h.2c0-.1,0,0,.1,0,.5.3,1.1.4,1.6,0h.2c1.2-.3,2-.2,2.2,0,.4.2,1,.2,1.4,0h.1c.1-.1.4-.1.5,0,0,0,0,0-.1,0,.4.4,1,.4,1.5.2h0c.1,0,.5,0,.7,0,.3,0,.7.1,1.1,0,.5,0,1,0,1.6,0,1.1,0,2.4,0,3.5,0,1,.5,2.1.4,2.9.2.3,0,.5,0,.7,0,.5.2,1.1.1,1.6,0,0,0,.2,0,.3,0-.1.5,0,1,.4,1.3l.4.4c.4.4,1.1.5,1.6.3,1.1-.5,1.1-1.4,1-1.8.2,0,.3,0,.4,0,.1,0,.3,0,.4,0,0,0,0,0-.1,0Zm18.9,5.3h0c0,.1,0,0,0,0,0,0,0,0,0,0,0,0,.1,0,.2,0Zm-7.5-1.8h0s0,0,0,0t0,0Zm0,0c0,0,.1,0,.2-.1,0,0-.1,0-.2.1h0Zm-8.7-3.4h0c0,.1-.1.2-.1.3,0,.5.1.9.4,1.2h0c-.3-.3-.5-.7-.4-1.2,0-.1,0-.2.1-.3Zm2,3.8s0,0,0,0c-.2-.3-.3-.6-.2-.9.3,0,.6,0,.9,0-.1.3-.3.6-.7.8Zm.7-.9c-.3-.1-.6-.2-.9-.3,0,0,0,0,0-.1,0,0,.1,0,.2,0h0c0,0,.3.1.5.2,0,0,.1,0,.2,0,0,0,0,.1,0,.2Zm17.8,8.1c0,0,.2,0,.3,0-.1,0-.2,0-.3,0Zm-39,29.8c-1.2.2-1.9.9-2.2,1.4,0,.1-.2.3-.3.3h0c0,0,.1,0,.2,0-1-.1-1.9.1-2.6.3-.9.3-1.4.4-1.7.2-.2,0-.3-.2-.5-.2-1.9-.3-3.5.1-4.9.5-1.1.3-2.1.6-3.2.5-.4,0-.7,0-1,.3-.5.4-1.3.4-2.1.5-.8,0-1.7.2-2.6.5-.4,0-.7,0-.9,0-.4-.2-.8-.2-1.1,0-.8.3-2,.5-2.9.2-.2,0-.4,0-.6,0-.6,0-1.1.1-1.7.2-.9.2-1.7.3-2.3.1-.2,0-.3,0-.5,0-.4,0-.7,0-1.1.1-1.1.2-2.4.3-2.9-.2-.3-.2-.6-.4-1-.4-.2,0-.6,0-.9,0-.8-.1-1.9-.3-2.9.3-1.2-.4-2.6-.2-3.7,0,0,0-.2,0-.3,0-.7-.2-1.6-.4-2.6,0-.6-.2-1.3-.2-1.9-.2-.8,0-1.6-.1-2.1-.4-.1,0-.3-.1-.4-.1,0-.1,0-.2-.1-.3-.2-.4-.6-.7-1-.8-.3,0-.5,0-.8,0-.4-.2-.7-.2-1-.2,0,0,0,0,0,0,0,0,0,0,0,0-.2-.3-.5-.5-.8-.6,0,0,.1,0,.2-.1,1.1-.9,2.5-1.2,4.1-1.5.3,0,.5-.2.7-.4.2-.2.9-.3,1.6-.4.5,0,1.1-.1,1.7-.3.3,0,.6,0,.9,0,.3-.1.5-.2.7-.3.3-.1.7-.4.9-.3.3.1.7.2,1,.1.1,0,.3,0,.4-.1.4-.1,1.3-.3,1.6-.2.3.3.8.4,1.2.2.4-.1.8-.4,1-.6,0,0,0,0,.1,0,.9.2,1.2.2,2-.1,0,0,.2,0,.3-.1.2-.1.8,0,1.2,0,.4,0,.7,0,1.1,0,.4.3.9.3,1.4.1,0,0,.2,0,.3,0,.4.1,1.1.3,1.8,0,.8,0,1.9.1,2.9-.3.4,0,.8.1,1.1.1.2,0,.3,0,.4,0,.3,0,.6,0,.9-.2.1,0,.2-.1.3-.2,0,0,0,0,.1,0,.3.1.7.2,1,0,.3,0,1,0,1.4,0,.3,0,.5,0,.7,0,.9,0,1.7.1,2.6.2,1.5.2,3,.3,4.5.2.4,0,.8-.3,1-.6.2-.3.9-.4,1.8-.4.3,0,.6,0,.9,0,.2,0,.4,0,.6-.2.6.7,1.4.8,1.8.8h.1,0c.7.2,1.5-.3,1.7-1,.2-.5,0-1.1-.3-1.6,0-.1-.2-.2-.3-.3,0,0,0,0,.1-.1.6,0,1.2,0,1.7-.1.6-.1,1-.6,1.1-1.2,0-.1,0-.2,0-.3.4-.2.7-.5.8-1,0-.3,0-.7-.1-1,1.1-.1,2.5-.5,2.6-2.2,0-.4,0-.7-.3-1-.9-1.2-2.3-1.5-3.4-1.7-.5-.1-.9-.2-1.2-.4,0-1-1-1.6-1.5-2,0,0-.1,0-.2-.1,0,0-.1,0-.1,0-1.8-1.1-4-1.6-6-2-1.7-.4-3.2-.7-4.5-1.3-.3-.2-.7-.2-1.1,0,0,0-.3,0-.4,0-.5-.1-1.4-.3-2.2,0,0,0-.2,0-.4-.1-.2,0-.4-.2-.7-.3-.4-.1-.7,0-1.1,0-.2,0-.4,0-.6,0-.5,0-.9.3-1.2.4,0,0-.2,0-.2.1-.3-.2-.6-.2-.9-.2-.4,0-.9,0-1.4,0-1,0-2.2,0-3.3.4,0,0-.2,0-.2,0,0,0-.2,0-.3,0-.6,0-1.4,0-2.1.6-.5,0-1.1.1-1.7.2-1.6.1-3.3.3-4.8,1-.7.2-1.5.2-2.4.3-1.3.1-2.6.3-3.9.8-.7,0-1.2.2-1.6.4,0,0-.1,0-.2,0-.5-.1-1,0-1.4.2,0,0,0,0,0,0-.3-.1-.7,0-1,0l-1.4.7c-.8-.1-1.5.1-2.1.3-.3.1-.6.2-.8.2,0,0-.2,0-.3,0,0,0,0,0,0,0,0,0-.2,0-.3,0,.8-.3,1.5-.7,2.1-1.2.6-.4,1.3-.6,2.1-.8.9-.3,1.8-.6,2.6-1.1.9-.2,3.7-.7,3.7-.7.2,0,.4-.1.6-.3h0c.2,0,.5,0,.8,0,1,.3,1.9,0,2.5-.2.5-.2.9-.3,1.2-.2.3,0,.5,0,.8,0,.2,0,.5-.1.7-.2.8-.1,2-.4,2.7-1.4.6-.3,1.2-.7,1.7-1,.3-.2.6-.4.9-.6,1.3-.8,1.8-1.9,2.1-2.8.2-.4.3-.7.5-.9.4-.6.3-1.3-.2-1.8,0-.2.1-.4.2-.6,0,0,0,0,0,0,.8-.3,1.6-.4,2.6-.4.4,0,.7-.1,1-.4h0c.3,0,.8,0,1.3-.3.1,0,.2,0,.4,0,0,.1.1.2.2.3,0,.5,0,.8.2,1,.2.5.7.8,1.2.8.5,0,1.1,0,1.6.1.5,0,.9,0,1.4.1.1.2.3.4.5.6,1.1.6,2.2.7,3.1.8.6,0,1.1,0,1.5.2.2.1.5.1.7.1.3,0,.6,0,.9,0,.6,0,1.3,0,2-.3.8.2,1.5,0,2.1-.1.5,0,.9-.2,1.1,0,.6.2,1.2,0,1.6-.4,0,0,.2,0,.3,0,.2,0,.5,0,.9-.2.6.1,1.2,0,1.5-.2,0,0,.1,0,.2,0,0,0,0,0,.1,0h1.1c2.1-.2,3.8-.3,5.9.2.3,0,.6,0,.9,0,.2,0,.5,0,.7-.1.4,0,.7.2,1.2.3.7.3,1.4.5,2.3.5.9.3,1.8.4,2.6.6,1.1.2,2.1.3,2.9.9.1,0,.2.1.3.2l.6.2c1.3.5,2.4.9,3.2,1.7.1.1.3.3.5.3,1.8.7,3.4,1.9,5,3.7,0,.4.3.9.8,1.5,0,0,0,0,.1.1.2.2.4.3.6.4,0,.2-.1.4-.2.6,0,.7.3,1.3,1,1.5.5.2.8.3,1,.4-.1.4-.2.7-.1,1,.1.7.5,1.2.9,1.5,0,0-.1.1-.2.2-.5.2-.8.4-1.1.6-.3.2-.5.3-.7.4-.4.1-.8.5-.9.9,0,.1,0,.3,0,.4-1.6,0-2.8,1.2-3.4,2l-.2.2c-.1.1-.2.3-.3.5h0c0,.2-.8.5-1.1.6-.7.3-1.5.7-2.1,1.3-.3,0-.5.2-.8.3-.6.3-1.1.5-1.6.4-.3,0-.6,0-.9.3-.2,0-.3,0-.5,0-1.5.3-2.9.8-4.1,1.4-1.6.7-3.2,1.3-4.9,1.3-.4,0-.8.2-1.1.4-.2.3-1,.4-1.6.5-.4,0-.8.1-1.2.2,0,0,.1,0,.2,0Zm-50.6-15.8c0-.1.2-.2.2-.3,0,0-.1.1-.2.3Zm31.3-4.2s0,0,0,0c0,0,0,0,0,0Zm11.7,15c.1.2.2.4.2.6-.2.6-.7,1-1.4,1,0,0-.1,0-.2-.1,0,0-.1-.2-.2-.4h0c.2-.1.3-.3.4-.4.2.3.7.2,1,.2,0-.3-.3-.7-.8-.8,0,0,0-.2,0-.3.2,0,.3-.2.4-.1.1,0,.3,0,.4,0,0,0,.1.1.2.2Zm-23.8-56.7c.6,0,1-.2,1.3-.3.5,0,1.1-.2,1.4-.6.1,0,.3,0,.5,0,.6,0,1.3,0,1.9-.5,0,0,.2,0,.3-.1-.2.2-.2.5-.3.7-.1,0-.3.2-.4.3-.4.4-.5.9-.4,1.4.1.4.4.8.8.9.2.3.5.9,1.5,1.2,0,0-.1,0-.2,0,.9.4,1.8.6,2.8.5.2.2.4.3.7.4.5.4,1.2.6,1.5.7,0,0,0,0,0,0,.1.2.2.3.4.5.4.3.8.4,1.3.2.2,0,.4,0,1,.3.6.3,1.4.7,2.5.6,0,0,0,.1,0,.2,0,.4.3.8.7,1,.8.4,1.8.5,2.3.5,0,0-.1,0-.2,0h.3c.3,0,.7,0,1,0,0,0,0,.1,0,.2,0,.2,0,.4.2.6.4.7,1.2.9,1.4,1,0,0,0,0,.1,0,.6.1.7.3,1,1,0,.2.1.3.2.5.2.4.5.6.9.8.4.1.7.1,1,.2-.2.1-.3.3-.4.4-.2,0-.4-.1-.6-.1-.7,0-1.3,0-1.8,0h0c-.4-.6-.9-.8-1.5-.6l-1.1.3c-.6.1-1,.3-1.3.5-.1,0-.2,0-.4.1-.1,0-.3,0-.4,0-.4,0-.8,0-1.2,0,0,0-.1,0-.2,0,0,0,0,0,0,0l-.4-.3c-.6-.4-1.5-.3-1.9.3-.3.3-1.7.4-2.4.4-.4,0-.7,0-1.1,0-.3-.2-.5-.3-.8-.3-.9-.2-1.5.3-1.9.6-.2,0-.5,0-.7,0-1.5.4-3.2.4-5.1.5-.8,0-1.7,0-2.6.1-.6,0-1,0-1.7-.5-.4-.2-.8-.5-1.3-.7,0-.1-.2-.2-.3-.4-.2-.6-.6-1-.8-1.3,0-.2,0-.5,0-.7-.1-.4-.4-.6-.8-.8,0-.2-.2-.5-.4-.8.1-.7,0-1.4,0-2,.1-.3.2-.7,0-1.2,0-.1.2-.3.2-.4,0-.1,0-.2,0-.3,0,0,0,0,0,0,.3-.2.7-.6,1-1,.2-.2.4-.3.6-.5.4-.4.8-.7,1.2-.8.2,0,.4-.2.5-.3.4-.3.7-.6,1-.9.4-.3.6-.6,1-.9Zm9.3,2.8c0,0,0-.2,0-.3,0,.1,0,.2,0,.3Zm10,3.7c0,.1-.1.2-.2.3,0,0,.1-.2.2-.3Zm41.3,30.9c.2.3.3.6.3,1,0,.1,0,.2,0,.3-.4-.5-1-.8-1.4-1.1.2-.1.4-.3.6-.3.3,0,.5,0,.6,0Zm15.7,2.3c-.1,0-.2-.1-.3-.2.1,0,.2.2.3.2Zm-1.3,7.5c0,0,0,0,0,.1,0,0,0,0,0-.1Zm0,.1s0,0,.1,0c0,0,0,0,0,0-.1,0-.2.2-.3.3,0,0,0,0,0,0,.1,0,.2-.2.3-.3Zm1.3-11.4s0,0,0,0c0,0,0-.1-.1-.2,0-.1-.2-.2-.2-.3,0,0,0,0,0,0,.5-.1.7.3.4.6Zm-2.8,12.2h0c0-.1,0-.2,0-.2.1,0,.2,0,.3,0-.1,0-.2.2-.3.3,0,0,0,0,0,0Zm-1.5-.2c.1,0,.2,0,.3,0-.1,0-.2,0-.3,0Zm-8-3.7h0s0,0-.1,0c0,0,0,0,.1,0Zm-7.1,7.1c.1,0,.2,0,.3,0-.1,0-.2,0-.3,0Zm-31.2-38.9s0,0,0,0c0,0,0,0,0,0h0Zm-8.9,1.1s0,0,0,0c0,0,0,0,0,0Zm-11.6,8.5c-.1.2-.3.3-.5.4,0,0-.1,0-.1,0-.1,0-.4-.2-.6-.6-.1-.3-.1-.6,0-.8,0,0,0,0,.1,0,0,0,0,0,0,0-.2.3.2.5.4.7.2-.3.6,0,.9-.1.2-.3.1-.5,0-.6,0,0,.2,0,.2,0,0,.3,0,.6-.2.8Zm-2.7-.4c0,.3.2.7.6,1.2-.2,0-.4.2-.5.4-.1,0-.3,0-.4,0,0,0-.1-.1-.2-.1-.3-.2-.6-.6-.9-1-.1-.1-.2-.3-.3-.5.3,0,.7,0,1,0,.2,0,.5,0,.7,0Zm8.2-.1c-.1,0-.5.1-.8.2,0-.2.1-.5.3-.7,0,0,0,0,0,0,.4-.2.8-.2,1.3-.2-.3.1-.6.4-.8.7Zm-1.1.2c-.3,0-.6,0-.9.2-.3-.2-.7-.3-1.3-.2,0,0,.2,0,.2,0-.3,0-.6,0-.8,0,0-.2,0-.5,0-.7,0,0,.1,0,.2,0,.5.2,1.1.2,1.4.1.2,0,.4,0,.5,0,0,0,0,0,0,0,.3.1.6.2.9.1v.3c0,0,0,.1,0,.2Zm46.9,18.2c0,.1-.2.2-.3.3-.1-.1-.2-.2-.4-.2,0-.1-.1-.3-.2-.4,0,0,0-.2.1-.3.3.2.5.4.7.5Zm-8.2-6.1h.4c-.1.1-.3,0-.4,0,0,0,0,0,0,0Zm-2.3-8.2h0s0,0,.1,0h0s0,0-.1,0h0Zm-31.9-4.4c-.4,0-.7-.2-1.1-.3.4,0,.9,0,1.4,0-.1,0-.2.2-.3.2Zm9.9,12.7c0,0,.1.1.2.2,0,0-.1-.1-.2-.2Zm2,.1c0,0-.2.1-.3.2,0,0,.2,0,.3-.2Zm.7.3s0,0-.1,0c0,0,.1,0,.1,0Zm19.4-9.5c0,0,.1.1.2.2,0,0-.1-.1-.2-.2Zm-26.3-2.4c.1,0,.2,0,.4,0-.1,0-.3,0-.4,0Zm-.3.1c0,0,.1,0,.2,0,0,0-.2,0-.2,0Zm2.7-1.7s0,0-.2,0c0,0,.1,0,.2,0Zm22.4,37.7c0,0-.1.2-.1.3,0,0,0-.2.1-.3Zm29.5-23.4s0,0-.1,0c0,0,0,0,.1,0h0Zm-28.4-14c.2,0,.4.1.6.1,0,.3,0,.6-.2.8-.2.4-.7.6-1.1.6-.4,0-.8-.4-.9-.9,0-.2,0-.4,0-.6.5,0,1.1,0,1.6,0Zm-19.6-31.5h0s0,0,0,0c0,0,0,0,0,0Zm24.1,78.9s0,0,0,0c0,0,0,0,0,.1,0,0,0,0-.2-.1Zm-.2.2c0,.2.2.3.4.5,0,0,0,0,0,0-.2-.1-.3-.3-.4-.5h0Zm-8.5-56.6c0-.1.1-.2.2-.3,0,0-.1.2-.2.3Zm-12.4,0c0-.1-.1-.2-.2-.3.1,0,.3,0,.4,0h.4c.2-.1.4-.2.6-.2-.3.2-.7.4-1.2.6Zm32.1,9.7s0,0-.1,0c0,0,.2,0,.3,0,.6.1,1.2.3,1.9.4.2.1.4.2.6.3-.9-.2-1.7-.4-2.6-.7Zm27.2-1.4c0,0,0,0,.1-.1h0s0,0-.1.1Zm.1-.1h0s0,0,.1-.1c0,0,0,0-.1.1Zm-52.1-60.2s0,0,0,0c0,0,0,0,0,0h0Zm-58.5-4.3s0,0,0,0c0,0,0,0,0,0Zm24.4-32.3c-1-.7-2.1-1.2-3.3-1.4-1.3-1.4-3.4-1.4-5.1-1.4-.9,0-1.8,0-2.4-.2-.5-.2-1.1,0-1.4.3,0,0,0,0,0,0-.1,0-.5,0-.8,0-.7,0-1.7,0-2.4.7,0,0-.1,0-.2,0-.4,0-1.2.2-1.8.8-.6-.3-1.3-.2-1.7.2,0-.2,0-.4,0-.6,0-.3,0-.7,0-1.1,0-.3-.2-.6-.4-.8-.1-.1-.2-.3-.3-.6.2-.3.2-.6.2-.7,0-.7-.4-1.2-.7-1.4,0-.2,0-.4,0-.6,0-.1,0-.2,0-.4.8-.9.6-1.9.5-2.4,0,0,0,0,0,0,0,0,0,0,0,0,2.3-.2,2.9-1.8,3.2-2.7.2-.6.3-.9.7-1,2.4.2,3.8.7,5.1,1.8.2.2.5.3.8.3.7,0,1,.4,1.5,1.1.7,1,1.7,2.3,4,2.3,0,.1,0,.3,0,.4,0,.5,0,1.2.5,1.9.3.5.8.8,1.4.7.3,0,.6-.2.8-.4.2,0,.3,0,.5,0l.9.9c-.2,1.3.9,2.4,1.3,2.7,0,0,.1.1.2.2,0,.4,0,.8.2,1.1,0,.1-.2.3-.2.4-.3.3-.5.8-.7,1.3,0,0,0-.2,0-.3,0-.5-.2-.9-.6-1.2Zm10.6,9.9c-.1-.1-.2-.3-.3-.4,0,0,0,0,0,0,.2,0,.4-.1.5-.2,0,0,0,0,.1,0,.1.1.3.2.5.2,0,.1-.2.3-.3.4,0,0,0,0,0,0-.2,0-.4-.1-.5-.2Zm12.8-9.4c0,0-.1-.1-.2-.2,0,0,0,0,0,0,0-.2,0-.3,0-.5,0,0,0,0,0-.1,0,0,.2,0,.2.1.1,0,.2.2.3.3,0,0,0,.1,0,.2,0,.2-.1.3-.2.4,0,0,0-.1-.1-.2Zm-2-9.9h0s0,0,0,0c0,0,0,0,0,0Zm46.1,18.8s0-.1,0-.2c0,0,0,.1,0,.2Zm4.8,9.9c.2.6,0,1.2-.3,1.6-.3,0-.7-.1-.9-.3,0,0-.1-.1-.1-.2-.1-.3-.2-.7,0-1,.1-.4.4-.7.8-.8.3.2.6.4.7.8Zm13.6-24.4h0s0,0,0,0c0,0,0,0,0,0Zm5.8-41.5c0,0-.2-.1-.2-.2,0,0,.1,0,.2.2Zm-.2.4c-.1,0-.2.1-.3.2,0,0,.2-.2.3-.2Zm-127.8,28.2c0,0-.1-.2-.2-.2,0,0,.1.1.2.2Zm-7.1-43c0,0-.2-.1-.3-.2,0,0,.2,0,.3.2Zm-30.6,39.5c0,0,0,0-.1,0,0,0,0,0,.1,0Zm27,64.1c.1,0,.2,0,.3,0,0,0-.2,0-.3,0Zm41.4,14.4c0,.1.2.2.3.3-.1,0-.2-.2-.3-.3Zm3.8,0h0c0,0,0,.2,0,.3,0-.1,0-.2,0-.3Zm.1,1.4s0,0,0,0c0,0,0,0,0,0Zm-34.8-3.7c-.1,0-.2,0-.3,0,.1,0,.2,0,.3,0Zm-1.2,0s0,0,0,0h0s0,0,0,0Zm-.4.6c0,0,0,.2,0,.3,0,0,0-.2,0-.3Zm-1.4,9.7c.1,0,.2,0,.4,0-.1,0-.3,0-.4,0Zm104.8,70.4c.1,0,.2-.2.3-.2,0,0-.2.2-.3.2Zm-3.2-36.4c.5,0,.9,0,1.2,0,.3,0,.6,0,.8,0,.2,0,.5.2.7.3-.9,0-1.8,0-2.7-.2Zm21.9-11.2c0,0,0-.2,0-.2,0,0,0,.2,0,.2Zm-6.7-2.7s0,0,0,0c0,0,0,0,0,0Zm-31.1-2.3c0-.1-.2-.2-.3-.3,0,0,.2.2.3.3Zm-4.4,4.8c0,0-.1.1-.2.2,0,0,0-.2.2-.2Zm-9.9.9c0,0-.1,0-.2,0h0c0,0,.1,0,.2,0Zm2.1-24.9s0,0,0,0c0,0,0,0,0,0Zm8.1-3.6c0,0,0-.1,0-.2,0,0,0,.1,0,.2s0,0,0,0Zm5.6-15.7c0,.1.2.2.2.3,0-.1-.1-.2-.2-.3Zm-19-49.4c0,.1,0,.2,0,.3,0,0,0-.2,0-.3Zm3.5,34.2c.1-.1.4-.3.8-.3.1,0,.3,0,.4.1,0,.2,0,.3,0,.4,0,0,0,.2,0,.3h-.2c0-.2-.2-.3-.4-.3l-.5.4.2.2-.6.2s0,0,0,0c0-.4,0-.8.3-1.1Zm-21.8,13.2c0,0,0,0,0-.1,0,0,0,0,0,.1Zm-10.2-39.1c.2-.4.2-.9.1-1.1.1-.1.2-.3.2-.4,0,0,0,0,0,0,0,.4,0,.9.3,1.2-.2.3-.3.6-.4.9,0-.2-.2-.4-.3-.6Zm18.3,1h0c0,0,.1,0,.2.1,0,0-.1,0-.2-.1Zm2.3.8c0,0,.1,0,.2-.1-.1,0-.2,0-.2.1Zm3.5-4.8c0,.1,0,.2,0,.3,0,0,0-.2,0-.3Zm39.1,18.8c0,0,.2,0,.3,0-.2,0-.3,0-.3,0Zm4.4-2.6c0,0,.1.2.2.2,0,0-.1-.2-.2-.2Zm-4.8,6.1c-.1,0-.2,0-.4,0,.1,0,.2,0,.4,0Zm15.2,7.1c0,0,0,.1,0,.2,0,0,0-.1,0-.2Zm1.8,1.9h0s0,0,0,0c0,0,0,0,0,0Z"/>
      </g>
    </g>
  </g>
</svg>